SplineFontDB: 3.0
FontName: SWCrawlTitle
FullName: SW Crawl Title
FamilyName: SW Crawl Title
Weight: Book
Copyright: Created by Matt Pfingsten 4/26/2002
Version: 1.00; April 26, 2002
ItalicAngle: 0
UnderlinePosition: -236
UnderlineWidth: 48
Ascent: 1638
Descent: 410
InvalidEm: 0
sfntRevision: 0x00010000
LayerCount: 2
Layer: 0 1 "Back" 1
Layer: 1 1 "Fore" 0
XUID: [1021 364 689637214 8943899]
StyleMap: 0x0040
FSType: 8
OS2Version: 1
OS2_WeightWidthSlopeOnly: 0
OS2_UseTypoMetrics: 0
CreationTime: 1019839489
ModificationTime: 1490749515
PfmFamily: 17
TTFWeight: 400
TTFWidth: 5
LineGap: 67
VLineGap: 0
Panose: 2 0 0 0 0 0 0 0 0 0
OS2TypoAscent: 1491
OS2TypoAOffset: 0
OS2TypoDescent: -431
OS2TypoDOffset: 0
OS2TypoLinegap: 307
OS2WinAscent: 1854
OS2WinAOffset: 0
OS2WinDescent: 434
OS2WinDOffset: 0
HheadAscent: 1854
HheadAOffset: 0
HheadDescent: -434
HheadDOffset: 0
OS2SubXSize: 1434
OS2SubYSize: 1331
OS2SubXOff: 0
OS2SubYOff: 283
OS2SupXSize: 1434
OS2SupYSize: 1331
OS2SupXOff: 0
OS2SupYOff: 977
OS2StrikeYSize: 102
OS2StrikeYPos: 530
OS2Vendor: 'HL  '
OS2CodePages: 00000001.00000000
OS2UnicodeRanges: 00000000.00000000.00000000.00000000
DEI: 91125
ShortTable: maxp 16
  1
  0
  98
  897
  55
  0
  0
  2
  8
  64
  10
  0
  82
  0
  0
  0
EndShort
LangName: 1033 "" "" "Regular" "SW Crawl Title" "" "Version 1.00; April 26, 2002" "" "" "High-Logic" "High-Logic - Erwin Denissen 1999" "Template" "http://www.high-logic.com/" "http://www.high-logic.com/" "Free, just give me credit."
GaspTable: 1 65535 2 0
Encoding: UnicodeBmp
UnicodeInterp: none
NameList: AGL For New Fonts
DisplaySize: -48
AntiAlias: 1
FitToEm: 0
WinInfo: 52 26 8
BeginChars: 65539 98

StartChar: .notdef
Encoding: 65536 -1 0
Width: 500
Flags: W
LayerCount: 2
Fore
SplineSet
256 0 m 1,0,-1
 256 1280 l 1,1,-1
 1280 1280 l 1,2,-1
 1280 0 l 1,3,-1
 256 0 l 1,0,-1
288 32 m 1,4,-1
 1248 32 l 1,5,-1
 1248 1248 l 1,6,-1
 288 1248 l 1,7,-1
 288 32 l 1,4,-1
EndSplineSet
Validated: 1
EndChar

StartChar: exclam
Encoding: 33 33 4
Width: 339
GlyphClass: 2
Flags: W
LayerCount: 2
Fore
SplineSet
1 243 m 1,0,-1
 240 243 l 1,1,-1
 240 0 l 1,2,-1
 1 0 l 1,3,-1
 1 243 l 1,0,-1
240 392 m 1,4,-1
 1 392 l 1,5,-1
 1 1500 l 1,6,-1
 240 1500 l 1,7,-1
 240 392 l 1,4,-1
EndSplineSet
Validated: 1
EndChar

StartChar: quotedbl
Encoding: 34 34 5
Width: 1047
GlyphClass: 2
Flags: W
LayerCount: 2
Fore
SplineSet
261 1365 m 1,0,-1
 471 1365 l 1,1,-1
 439 805 l 1,2,-1
 294 805 l 1,3,-1
 261 1365 l 1,0,-1
575 1365 m 1,4,-1
 785 1365 l 1,5,-1
 753 805 l 1,6,-1
 607 805 l 1,7,-1
 575 1365 l 1,4,-1
EndSplineSet
Validated: 1
EndChar

StartChar: numbersign
Encoding: 35 35 6
Width: 1046
GlyphClass: 2
Flags: W
LayerCount: 2
Fore
SplineSet
258 1365 m 1,0,-1
 405 1365 l 1,1,-1
 406 969 l 1,2,-1
 633 969 l 1,3,-1
 632 1365 l 1,4,-1
 779 1365 l 1,5,-1
 780 969 l 1,6,-1
 978 969 l 1,7,-1
 979 830 l 1,8,-1
 781 830 l 1,9,-1
 781 566 l 1,10,-1
 979 566 l 1,11,-1
 980 426 l 1,12,-1
 782 426 l 1,13,-1
 783 0 l 1,14,-1
 635 0 l 1,15,-1
 635 426 l 1,16,-1
 408 426 l 1,17,-1
 408 0 l 1,18,-1
 261 0 l 1,19,-1
 261 426 l 1,20,-1
 63 426 l 1,21,-1
 62 566 l 1,22,-1
 260 566 l 1,23,-1
 260 830 l 1,24,-1
 62 830 l 1,25,-1
 60 969 l 1,26,-1
 258 969 l 1,27,-1
 258 1365 l 1,0,-1
407 830 m 1,28,-1
 407 566 l 1,29,-1
 634 566 l 1,30,-1
 634 830 l 1,31,-1
 407 830 l 1,28,-1
EndSplineSet
Validated: 1
EndChar

StartChar: dollar
Encoding: 36 36 7
Width: 600
GlyphClass: 2
Flags: W
LayerCount: 2
Fore
SplineSet
190 1596 m 1,0,-1
 320 1596 l 1,1,-1
 320 -89 l 1,2,-1
 190 -89 l 1,3,-1
 190 1596 l 1,0,-1
0 397 m 1,4,-1
 149 397 l 1,5,6
 156 298 156 298 169 258 c 128,-1,7
 182 218 182 218 203 205 c 128,-1,8
 224 192 224 192 244 187 c 128,-1,9
 264 182 264 182 292 187 c 128,-1,10
 320 192 320 192 333 234.5 c 128,-1,11
 346 277 346 277 351.5 314 c 128,-1,12
 357 351 357 351 348 419 c 1,13,14
 348 487 348 487 340 533 c 128,-1,15
 332 579 332 579 306 623 c 1,16,17
 305 656 305 656 210.5 719 c 128,-1,18
 116 782 116 782 81 825 c 1,19,20
 45 859 45 859 23 924.5 c 128,-1,21
 1 990 1 990 1 1100 c 256,22,23
 1 1210 1 1210 28 1305.5 c 128,-1,24
 55 1401 55 1401 106.5 1450.5 c 128,-1,25
 158 1500 158 1500 238 1500 c 1,26,27
 359 1510 359 1510 419.5 1453 c 128,-1,28
 480 1396 480 1396 491.5 1320 c 128,-1,29
 503 1244 503 1244 500 1103 c 1,30,-1
 355 1103 l 1,31,32
 357 1240 357 1240 347 1283 c 128,-1,33
 337 1326 337 1326 289 1338.5 c 128,-1,34
 241 1351 241 1351 205 1326 c 128,-1,35
 169 1301 169 1301 155.5 1252 c 128,-1,36
 142 1203 142 1203 142 1113 c 0,37,38
 142 1035 142 1035 158 994 c 1,39,40
 162 944 162 944 267 886 c 128,-1,41
 372 828 372 828 410 789 c 0,42,43
 473 720 473 720 486.5 635.5 c 128,-1,44
 500 551 500 551 500 434 c 0,45,46
 500 319 500 319 479.5 216.5 c 128,-1,47
 459 114 459 114 414 57 c 128,-1,48
 369 0 369 0 268 0 c 0,49,50
 150 0 150 0 100.5 57.5 c 128,-1,51
 51 115 51 115 27 175 c 128,-1,52
 3 235 3 235 0 397 c 1,4,-1
EndSplineSet
Validated: 37
EndChar

StartChar: percent
Encoding: 37 37 8
Width: 1395
GlyphClass: 2
Flags: W
LayerCount: 2
Fore
SplineSet
624 1024 m 0,0,1
 624 855 624 855 550.5 763 c 128,-1,2
 477 671 477 671 356 671 c 256,3,4
 235 671 235 671 161 762 c 128,-1,5
 87 853 87 853 87 1024 c 0,6,7
 87 1193 87 1193 160.5 1285 c 128,-1,8
 234 1377 234 1377 356 1377 c 0,9,10
 476 1377 476 1377 550 1286.5 c 128,-1,11
 624 1196 624 1196 624 1024 c 0,0,1
465 1024 m 0,12,13
 465 1252 465 1252 356 1252 c 0,14,15
 246 1252 246 1252 246 1024 c 0,16,17
 246 797 246 797 355 797 c 0,18,19
 465 797 465 797 465 1024 c 0,12,13
965 1365 m 1,20,-1
 1100 1365 l 1,21,-1
 434 0 l 1,22,-1
 299 0 l 1,23,-1
 965 1365 l 1,20,-1
1308 341 m 256,24,25
 1308 172 1308 172 1234.5 80 c 128,-1,26
 1161 -12 1161 -12 1039 -12 c 0,27,28
 918 -12 918 -12 844.5 80 c 128,-1,29
 771 172 771 172 771 341 c 0,30,31
 771 511 771 511 845 602.5 c 128,-1,32
 919 694 919 694 1039 694 c 0,33,34
 1160 694 1160 694 1234 602 c 128,-1,35
 1308 510 1308 510 1308 341 c 256,24,25
1149 341 m 0,36,37
 1149 569 1149 569 1039 569 c 0,38,39
 930 569 930 569 930 336 c 0,40,41
 930 114 930 114 1039 114 c 0,42,43
 1149 114 1149 114 1149 341 c 0,36,37
EndSplineSet
Validated: 1
EndChar

StartChar: ampersand
Encoding: 38 38 9
Width: 1291
GlyphClass: 2
Flags: W
LayerCount: 2
Fore
SplineSet
1032 762 m 1,0,-1
 1201 726 l 1,1,2
 1151 450 1151 450 1017 260 c 1,3,4
 1091 168 1091 168 1161 168 c 0,5,6
 1184 168 1184 168 1224 176 c 1,7,-1
 1224 0 l 1,8,9
 1161 -18 1161 -18 1116 -18 c 0,10,11
 987 -18 987 -18 881 116 c 1,12,13
 724 -25 724 -25 532 -25 c 0,14,15
 334 -25 334 -25 227.5 92.5 c 128,-1,16
 121 210 121 210 121 377 c 0,17,18
 121 643 121 643 418 781 c 1,19,20
 299 966 299 966 299 1095 c 0,21,22
 299 1212 299 1212 388.5 1301 c 128,-1,23
 478 1390 478 1390 621 1390 c 0,24,25
 765 1390 765 1390 846.5 1305.5 c 128,-1,26
 928 1221 928 1221 928 1094 c 0,27,28
 928 879 928 879 679 739 c 1,29,-1
 912 403 l 1,30,31
 991 527 991 527 1032 762 c 1,0,-1
589 863 m 1,32,33
 748 955 748 955 748 1096 c 0,34,35
 748 1158 748 1158 714 1197.5 c 128,-1,36
 680 1237 680 1237 625 1237 c 0,37,38
 572 1237 572 1237 535 1200 c 128,-1,39
 498 1163 498 1163 498 1100 c 0,40,41
 498 1004 498 1004 589 863 c 1,32,33
506 654 m 1,42,43
 337 553 337 553 337 388 c 0,44,45
 337 281 337 281 398.5 213 c 128,-1,46
 460 145 460 145 560 145 c 0,47,48
 689 145 689 145 783 251 c 1,49,-1
 506 654 l 1,42,43
EndSplineSet
Validated: 1
EndChar

StartChar: quotesingle
Encoding: 39 39 10
Width: 698
GlyphClass: 2
Flags: W
LayerCount: 2
Fore
SplineSet
244 1365 m 1,0,-1
 454 1365 l 1,1,-1
 422 805 l 1,2,-1
 277 805 l 1,3,-1
 244 1365 l 1,0,-1
EndSplineSet
Validated: 1
EndChar

StartChar: parenleft
Encoding: 40 40 11
Width: 523
GlyphClass: 2
Flags: W
LayerCount: 2
Fore
SplineSet
369 1365 m 1,0,-1
 535 1365 l 1,1,2
 301 978 301 978 301 512 c 0,3,4
 301 44 301 44 535 -342 c 1,5,-1
 369 -342 l 1,6,7
 93 55 93 55 93 512 c 0,8,9
 93 978 93 978 369 1365 c 1,0,-1
EndSplineSet
Validated: 1
EndChar

StartChar: parenright
Encoding: 41 41 12
Width: 523
GlyphClass: 2
Flags: W
LayerCount: 2
Fore
SplineSet
154 -342 m 1,0,-1
 -12 -342 l 1,1,2
 222 45 222 45 222 512 c 0,3,4
 222 978 222 978 -12 1365 c 1,5,-1
 154 1365 l 1,6,7
 430 977 430 977 430 512 c 0,8,9
 430 46 430 46 154 -342 c 1,0,-1
EndSplineSet
Validated: 1
EndChar

StartChar: asterisk
Encoding: 42 42 13
Width: 1046
GlyphClass: 2
Flags: W
LayerCount: 2
Fore
SplineSet
448 1365 m 1,0,-1
 599 1365 l 1,1,-1
 576 1095 l 1,2,-1
 800 1245 l 1,3,-1
 871 1108 l 1,4,-1
 635 1002 l 1,5,-1
 871 897 l 1,6,-1
 800 761 l 1,7,-1
 576 910 l 1,8,-1
 599 640 l 1,9,-1
 448 640 l 1,10,-1
 470 910 l 1,11,-1
 247 761 l 1,12,-1
 176 897 l 1,13,-1
 412 1002 l 1,14,-1
 176 1108 l 1,15,-1
 247 1245 l 1,16,-1
 470 1095 l 1,17,-1
 448 1365 l 1,0,-1
EndSplineSet
Validated: 1
EndChar

StartChar: plus
Encoding: 43 43 14
Width: 1196
GlyphClass: 2
Flags: W
LayerCount: 2
Fore
SplineSet
513 237 m 1,0,-1
 513 639 l 1,1,-1
 114 639 l 1,2,-1
 114 807 l 1,3,-1
 513 807 l 1,4,-1
 513 1206 l 1,5,-1
 683 1206 l 1,6,-1
 683 807 l 1,7,-1
 1082 807 l 1,8,-1
 1082 639 l 1,9,-1
 683 639 l 1,10,-1
 683 237 l 1,11,-1
 513 237 l 1,0,-1
EndSplineSet
Validated: 1
EndChar

StartChar: comma
Encoding: 44 44 15
Width: 489
GlyphClass: 2
Flags: W
LayerCount: 2
Fore
SplineSet
140 258 m 1,0,-1
 368 258 l 1,1,-1
 368 12 l 1,2,-1
 219 -289 l 1,3,-1
 120 -289 l 1,4,-1
 245 0 l 1,5,-1
 140 0 l 1,6,-1
 140 258 l 1,0,-1
EndSplineSet
Validated: 1
EndChar

StartChar: hyphen
Encoding: 45 45 16
AltUni2: 002010.ffffffff.0
Width: 593
GlyphClass: 2
Flags: W
LayerCount: 2
Fore
SplineSet
80 596 m 1,0,-1
 512 596 l 1,1,-1
 512 429 l 1,2,-1
 80 429 l 1,3,-1
 80 596 l 1,0,-1
EndSplineSet
Validated: 1
EndChar

StartChar: period
Encoding: 46 46 17
Width: 489
GlyphClass: 2
Flags: W
LayerCount: 2
Fore
SplineSet
130 258 m 1,0,-1
 358 258 l 1,1,-1
 358 0 l 1,2,-1
 130 0 l 1,3,-1
 130 258 l 1,0,-1
EndSplineSet
Validated: 1
EndChar

StartChar: slash
Encoding: 47 47 18
Width: 977
GlyphClass: 2
Flags: W
LayerCount: 2
Fore
SplineSet
723 1365 m 1,0,-1
 879 1365 l 1,1,-1
 125 -342 l 1,2,-1
 -31 -342 l 1,3,-1
 723 1365 l 1,0,-1
EndSplineSet
Validated: 1
EndChar

StartChar: zero
Encoding: 48 48 19
Width: 529
GlyphClass: 2
Flags: W
LayerCount: 2
Fore
SplineSet
277 183 m 0,0,1
 275 128 275 128 212 128.5 c 128,-1,2
 149 129 149 129 148 181 c 2,3,-1
 148 1305 l 1,4,5
 154 1358 154 1358 212 1357 c 128,-1,6
 270 1356 270 1356 278 1304 c 0,7,8
 277 1291 277 1291 277 183 c 0,0,1
0 1271 m 2,9,-1
 0 219 l 2,10,11
 0 -1 0 -1 216 -0.5 c 128,-1,12
 432 0 432 0 430 223 c 2,13,-1
 430 1272 l 1,14,15
 426 1500 426 1500 208 1500 c 0,16,17
 1 1500 1 1500 0 1271 c 2,9,-1
272 81 m 1,18,-1
 351 81 l 1,19,-1
 150 1422 l 1,20,-1
 71 1422 l 1,21,-1
 272 81 l 1,18,-1
EndSplineSet
Validated: 37
EndChar

StartChar: one
Encoding: 49 49 20
Width: 494
GlyphClass: 2
Flags: W
LayerCount: 2
Fore
SplineSet
148 1500 m 1,0,-1
 313 1500 l 1,1,-1
 313 0 l 1,2,-1
 92 0 l 1,3,-1
 92 1223 l 1,4,-1
 0 1112 l 1,5,-1
 0 1336 l 1,6,-1
 148 1500 l 1,0,-1
EndSplineSet
Validated: 1
EndChar

StartChar: two
Encoding: 50 50 21
Width: 527
GlyphClass: 2
Flags: W
LayerCount: 2
Fore
SplineSet
0 1240 m 1,1,-1
 146 1240 l 1,2,-1
 147 1276 l 2,3,4
 147 1348 147 1348 179 1346 c 2,5,-1
 252 1346 l 2,6,7
 281 1347 281 1347 281 1316 c 1,8,-1
 0 159 l 1,9,-1
 0 0 l 1,10,-1
 424 0 l 1,11,-1
 424 160 l 1,12,-1
 143 160 l 1,13,-1
 425 1339 l 1,14,15
 425 1384 425 1384 416.5 1439 c 128,-1,16
 408 1494 408 1494 285 1500 c 0,17,18
 212 1500 212 1500 106 1500 c 256,19,0
 0 1500 0 1500 0 1240 c 1,1,-1
EndSplineSet
Validated: 41
EndChar

StartChar: three
Encoding: 51 51 22
Width: 527
GlyphClass: 2
Flags: W
LayerCount: 2
Fore
SplineSet
0 1261 m 1,1,-1
 146 1260 l 1,2,-1
 147 1306 l 2,3,4
 147 1358 147 1358 179 1356 c 2,5,-1
 252 1356 l 2,6,7
 281 1357 281 1357 281 1326 c 2,8,-1
 280 976 l 2,9,10
 282 935 282 935 146 828 c 1,11,-1
 146 745 l 1,12,13
 279 671 279 671 272 617 c 1,14,-1
 272 173 l 2,15,16
 272 153 272 153 250 153 c 2,17,-1
 168 153 l 2,18,19
 146 153 146 153 145 173 c 2,20,-1
 145 289 l 1,21,-1
 -1 290 l 1,22,-1
 -1 154 l 2,23,24
 0 -1 0 -1 153 0 c 2,25,-1
 272 0 l 2,26,27
 428 0 428 0 428 153 c 2,28,-1
 428 631 l 2,29,30
 427 749 427 749 314 795 c 1,31,32
 425 834 425 834 425 963 c 2,33,-1
 425 1339 l 2,34,35
 425 1384 425 1384 416.5 1439 c 128,-1,36
 408 1494 408 1494 285 1500 c 0,37,38
 212 1500 212 1500 106 1500 c 256,39,0
 0 1500 0 1500 0 1261 c 1,1,-1
EndSplineSet
Validated: 41
EndChar

StartChar: four
Encoding: 52 52 23
Width: 700
GlyphClass: 2
Flags: W
LayerCount: 2
Fore
SplineSet
393 1500 m 1,0,-1
 600 1500 l 1,1,-1
 600 0 l 1,2,-1
 424 0 l 1,3,-1
 424 352 l 1,4,-1
 0 352 l 1,5,-1
 0 501 l 1,6,-1
 393 1500 l 1,0,-1
443 500 m 1,7,-1
 443 1284 l 1,8,-1
 192 500 l 1,9,-1
 443 500 l 1,7,-1
EndSplineSet
Validated: 1
EndChar

StartChar: five
Encoding: 53 53 24
Width: 527
GlyphClass: 2
Flags: W
LayerCount: 2
Fore
SplineSet
0 239 m 1,1,-1
 146 240 l 1,2,-1
 147 174 l 2,3,4
 147 122 147 122 179 124 c 2,5,-1
 252 124 l 2,6,7
 281 123 281 123 281 154 c 2,8,-1
 280 644 l 2,9,10
 282 685 282 685 232 683 c 2,11,-1
 136 682 l 2,12,13
 0 679 0 679 0 771 c 2,14,-1
 0 1500 l 1,15,-1
 424 1500 l 1,16,-1
 424 1340 l 1,17,-1
 146 1339 l 1,18,-1
 146 824 l 1,19,-1
 314 825 l 1,20,21
 425 786 425 786 425 657 c 2,22,-1
 425 161 l 2,23,24
 425 116 425 116 416.5 61 c 128,-1,25
 408 6 408 6 285 0 c 0,26,27
 212 0 212 0 106 0 c 256,28,0
 0 0 0 0 0 239 c 1,1,-1
EndSplineSet
Validated: 33
EndChar

StartChar: six
Encoding: 54 54 25
Width: 527
GlyphClass: 2
Flags: W
LayerCount: 2
Fore
SplineSet
0 124 m 2,1,-1
 0 1300 l 2,2,3
 -2 1500 -2 1500 211 1500 c 2,4,-1
 424 1500 l 1,5,-1
 424 1340 l 1,6,-1
 215 1340 l 2,7,8
 146 1340 146 1340 146 1297 c 2,9,-1
 146 814 l 1,10,-1
 314 815 l 1,11,12
 425 776 425 776 425 657 c 2,13,-1
 425 116 l 2,14,15
 426 0 426 0 319 0 c 128,-1,16
 212 0 212 0 126 0 c 0,17,0
 0 0 0 0 0 124 c 2,1,-1
295 588 m 0,18,19
 292 679 292 679 230.5 680 c 128,-1,20
 169 681 169 681 145 680 c 1,21,-1
 145 180 l 2,22,23
 145 120 145 120 218.5 120 c 128,-1,24
 292 120 292 120 295 176 c 0,25,26
 296 202 296 202 295 588 c 0,18,19
EndSplineSet
Validated: 33
EndChar

StartChar: seven
Encoding: 55 55 26
Width: 700
GlyphClass: 2
Flags: W
LayerCount: 2
Fore
SplineSet
4 1500 m 1,0,-1
 600 1500 l 1,1,-1
 600 1350 l 1,2,-1
 288 0 l 1,3,-1
 148 0 l 1,4,-1
 451 1345 l 1,5,-1
 5 1345 l 1,6,-1
 4 1500 l 1,0,-1
EndSplineSet
Validated: 1
EndChar

StartChar: eight
Encoding: 56 56 27
Width: 529
GlyphClass: 2
Flags: W
LayerCount: 2
Fore
SplineSet
277 828 m 0,0,1
 275 802 275 802 212 802 c 128,-1,2
 149 802 149 802 148 827 c 2,3,-1
 148 1365 l 1,4,5
 154 1390 154 1390 212 1389.5 c 128,-1,6
 270 1389 270 1389 278 1364 c 0,7,8
 277 1358 277 1358 277 828 c 0,0,1
0 1363 m 2,9,-1
 0 820 l 2,10,11
 0 706 0 706 76 705 c 1,12,13
 0 701 0 701 -1 600 c 2,14,-1
 -1 94 l 2,15,16
 0 -1 0 -1 215 1 c 0,17,18
 429 0 429 0 430 93 c 2,19,-1
 429 599 l 2,20,21
 430 701 430 701 353 705 c 1,22,23
 430 707 430 707 430 822 c 2,24,-1
 430 1363 l 1,25,26
 426 1481 426 1481 208 1481 c 0,27,28
 1 1481 1 1481 0 1363 c 2,9,-1
277 117 m 0,29,30
 275 92 275 92 212 92 c 128,-1,31
 149 92 149 92 148 116 c 2,32,-1
 148 638 l 1,33,34
 154 662 154 662 212 661.5 c 128,-1,35
 270 661 270 661 278 637 c 0,36,37
 277 631 277 631 277 117 c 0,29,30
EndSplineSet
Validated: 41
EndChar

StartChar: nine
Encoding: 57 57 28
Width: 527
GlyphClass: 2
Flags: W
LayerCount: 2
Fore
SplineSet
424 1376 m 2,1,-1
 424 200 l 2,2,3
 426 0 426 0 213 0 c 2,4,-1
 0 0 l 1,5,-1
 0 160 l 1,6,-1
 209 160 l 2,7,8
 278 160 278 160 278 203 c 2,9,-1
 278 686 l 1,10,-1
 110 685 l 1,11,12
 -1 724 -1 724 -1 843 c 2,13,-1
 -1 1384 l 2,14,15
 -2 1500 -2 1500 105 1500 c 128,-1,16
 212 1500 212 1500 298 1500 c 0,17,0
 424 1500 424 1500 424 1376 c 2,1,-1
129 912 m 0,18,19
 132 821 132 821 193.5 820 c 128,-1,20
 255 819 255 819 279 820 c 1,21,-1
 279 1320 l 2,22,23
 279 1380 279 1380 205.5 1380 c 128,-1,24
 132 1380 132 1380 129 1324 c 0,25,26
 128 1298 128 1298 129 912 c 0,18,19
EndSplineSet
Validated: 33
EndChar

StartChar: colon
Encoding: 58 58 29
Width: 488
GlyphClass: 2
Flags: W
LayerCount: 2
Fore
SplineSet
130 1010 m 1,0,-1
 358 1010 l 1,1,-1
 358 752 l 1,2,-1
 130 752 l 1,3,-1
 130 1010 l 1,0,-1
130 258 m 1,4,-1
 358 258 l 1,5,-1
 358 0 l 1,6,-1
 130 0 l 1,7,-1
 130 258 l 1,4,-1
EndSplineSet
Validated: 1
EndChar

StartChar: semicolon
Encoding: 59 59 30
Width: 489
GlyphClass: 2
Flags: W
LayerCount: 2
Fore
SplineSet
140 1010 m 1,0,-1
 368 1010 l 1,1,-1
 368 752 l 1,2,-1
 140 752 l 1,3,-1
 140 1010 l 1,0,-1
140 258 m 1,4,-1
 368 258 l 1,5,-1
 368 12 l 1,6,-1
 219 -289 l 1,7,-1
 120 -289 l 1,8,-1
 245 0 l 1,9,-1
 140 0 l 1,10,-1
 140 258 l 1,4,-1
EndSplineSet
Validated: 1
EndChar

StartChar: less
Encoding: 60 60 31
Width: 1046
GlyphClass: 2
Flags: W
LayerCount: 2
Fore
SplineSet
946 1221 m 1,0,-1
 946 991 l 1,1,-1
 305 681 l 1,2,-1
 945 371 l 1,3,-1
 946 142 l 1,4,-1
 59 584 l 1,5,-1
 59 780 l 1,6,-1
 946 1221 l 1,0,-1
EndSplineSet
Validated: 1
EndChar

StartChar: equal
Encoding: 61 61 32
Width: 1046
GlyphClass: 2
Flags: W
LayerCount: 2
Fore
SplineSet
941 740 m 1,0,-1
 104 740 l 1,1,-1
 104 906 l 1,2,-1
 941 906 l 1,3,-1
 941 740 l 1,0,-1
941 459 m 1,4,-1
 104 459 l 1,5,-1
 104 625 l 1,6,-1
 941 625 l 1,7,-1
 941 459 l 1,4,-1
EndSplineSet
Validated: 1
EndChar

StartChar: greater
Encoding: 62 62 33
Width: 1046
GlyphClass: 2
Flags: W
LayerCount: 2
Fore
SplineSet
100 142 m 1,0,-1
 100 372 l 1,1,-1
 742 682 l 1,2,-1
 101 993 l 1,3,-1
 100 1221 l 1,4,-1
 987 779 l 1,5,-1
 987 583 l 1,6,-1
 100 142 l 1,0,-1
EndSplineSet
Validated: 1
EndChar

StartChar: question
Encoding: 63 63 34
Width: 1012
GlyphClass: 2
Flags: W
LayerCount: 2
Fore
SplineSet
230 999 m 1,0,-1
 83 999 l 1,1,2
 108 1497 108 1497 403 1497 c 0,3,4
 545 1497 545 1497 627.5 1387 c 128,-1,5
 710 1277 710 1277 710 1091 c 0,6,7
 710 998 710 998 681.5 906 c 128,-1,8
 653 814 653 814 549 697 c 0,9,10
 478 616 478 616 462.5 571 c 128,-1,11
 447 526 447 526 447 450 c 2,12,-1
 448 392 l 1,13,-1
 299 392 l 1,14,-1
 300 437 l 2,15,16
 300 596 300 596 318 658 c 128,-1,17
 336 720 336 720 408 805 c 0,18,19
 478 887 478 887 505 946 c 128,-1,20
 532 1005 532 1005 532 1095 c 0,21,22
 532 1199 532 1199 494.5 1251.5 c 128,-1,23
 457 1304 457 1304 393 1304 c 0,24,25
 243 1304 243 1304 230 999 c 1,0,-1
286 225 m 1,26,-1
 461 225 l 1,27,-1
 461 40 l 1,28,-1
 286 40 l 1,29,-1
 286 225 l 1,26,-1
EndSplineSet
Validated: 1
EndChar

StartChar: at
Encoding: 64 64 35
Width: 1221
GlyphClass: 2
Flags: W
LayerCount: 2
Fore
SplineSet
796 1038 m 1,0,-1
 916 1038 l 1,1,-1
 857 615 l 2,2,3
 844 520 844 520 844 480 c 0,4,5
 844 411 844 411 894 411 c 0,6,7
 967 411 967 411 1018 511 c 128,-1,8
 1069 611 1069 611 1069 770 c 0,9,10
 1069 1015 1069 1015 953.5 1148 c 128,-1,11
 838 1281 838 1281 646 1281 c 0,12,13
 431 1281 431 1281 297 1108.5 c 128,-1,14
 163 936 163 936 163 673 c 0,15,16
 163 414 163 414 300 251 c 128,-1,17
 437 88 437 88 671 88 c 0,18,19
 864 88 864 88 1036 195 c 1,20,-1
 1082 85 l 1,21,22
 874 -33 874 -33 664 -33 c 0,23,24
 374 -33 374 -33 194.5 155 c 128,-1,25
 15 343 15 343 15 668 c 0,26,27
 15 991 15 991 190 1196 c 128,-1,28
 365 1401 365 1401 649 1401 c 0,29,30
 902 1401 902 1401 1054.5 1237.5 c 128,-1,31
 1207 1074 1207 1074 1207 787 c 0,32,33
 1207 561 1207 561 1110.5 420 c 128,-1,34
 1014 279 1014 279 875 279 c 0,35,36
 753 279 753 279 727 396 c 1,37,38
 668 274 668 274 549 274 c 0,39,40
 450 274 450 274 388.5 363 c 128,-1,41
 327 452 327 452 327 605 c 0,42,43
 327 797 327 797 410.5 925 c 128,-1,44
 494 1053 494 1053 619 1053 c 0,45,46
 734 1053 734 1053 781 927 c 1,47,-1
 796 1038 l 1,0,-1
720 730 m 0,48,49
 720 903 720 903 627 903 c 0,50,51
 565 903 565 903 525 820 c 128,-1,52
 485 737 485 737 485 608 c 0,53,54
 485 522 485 522 511 473 c 128,-1,55
 537 424 537 424 580 424 c 0,56,57
 648 424 648 424 684 516 c 128,-1,58
 720 608 720 608 720 730 c 0,48,49
EndSplineSet
Validated: 1
EndChar

StartChar: A
Encoding: 65 65 36
Width: 750
GlyphClass: 2
Flags: W
LayerCount: 2
Fore
SplineSet
0 0 m 1,0,-1
 159 0 l 1,1,-1
 231 426 l 1,2,-1
 431 426 l 1,3,-1
 492 -1 l 1,4,-1
 650 0 l 1,5,-1
 436 1500 l 1,6,-1
 222 1500 l 1,7,-1
 0 0 l 1,0,-1
348 1213 m 1,8,-1
 419 533 l 1,9,-1
 240 533 l 1,10,-1
 312 1214 l 1,11,-1
 348 1213 l 1,8,-1
EndSplineSet
Validated: 9
EndChar

StartChar: B
Encoding: 66 66 37
Width: 527
GlyphClass: 2
Flags: W
LayerCount: 2
Fore
SplineSet
1 1501 m 1,0,1
 1 1312 1 1312 0 1219 c 2,2,-1
 0 0 l 1,3,4
 269 1 269 1 297 0 c 0,5,6
 381 6 381 6 404 69.5 c 128,-1,7
 427 133 427 133 427 263 c 2,8,-1
 428 676 l 2,9,10
 428 745 428 745 366 765 c 1,11,12
 427 784 427 784 427 863 c 2,13,-1
 427 1339 l 2,14,15
 427 1384 427 1384 403.5 1432 c 128,-1,16
 380 1480 380 1480 257 1500 c 1,17,18
 214 1500 214 1500 1 1501 c 1,0,1
277 202 m 0,19,20
 274 111 274 111 222.5 110 c 128,-1,21
 171 109 171 109 147 110 c 1,22,-1
 147 670 l 2,23,24
 150 670 150 670 212 670 c 128,-1,25
 274 670 274 670 277 614 c 0,26,27
 278 588 278 588 277 202 c 0,19,20
277 912 m 0,28,29
 274 821 274 821 222.5 820 c 128,-1,30
 171 819 171 819 147 820 c 1,31,-1
 147 1380 l 2,32,33
 150 1380 150 1380 212 1380 c 128,-1,34
 274 1380 274 1380 277 1324 c 0,35,36
 278 1298 278 1298 277 912 c 0,28,29
EndSplineSet
Validated: 41
EndChar

StartChar: C
Encoding: 67 67 38
Width: 528
GlyphClass: 2
Flags: W
LayerCount: 2
Fore
SplineSet
0 1335 m 0,0,1
 0 1315 0 1315 0 1222 c 2,2,-1
 0 169 l 1,3,4
 16 58 16 58 131 16.5 c 128,-1,5
 246 -25 246 -25 339 38.5 c 128,-1,6
 432 102 432 102 429 223 c 2,7,-1
 429 435 l 1,8,-1
 276 435 l 1,9,-1
 277 207 l 2,10,11
 275 142 275 142 213.5 142 c 128,-1,12
 152 142 152 142 147 205 c 1,13,-1
 147 1299 l 1,14,15
 155 1360 155 1360 214 1361 c 128,-1,16
 273 1362 273 1362 276 1312 c 0,17,18
 277 1285 277 1285 276 1078 c 1,19,-1
 429 1078 l 1,20,-1
 429 1343 l 2,21,22
 430 1387 430 1387 404.5 1430.5 c 128,-1,23
 379 1474 379 1474 257 1500 c 1,24,25
 16 1509 16 1509 0 1335 c 0,0,1
EndSplineSet
Validated: 41
EndChar

StartChar: D
Encoding: 68 68 39
Width: 529
GlyphClass: 2
Flags: W
LayerCount: 2
Fore
SplineSet
283 448 m 1,0,-1
 282 212 l 2,1,2
 283 147 283 147 228 148 c 128,-1,3
 173 149 173 149 148 148 c 1,4,-1
 148 1373 l 1,5,6
 152 1373 152 1373 212.5 1373 c 128,-1,7
 273 1373 273 1373 282 1312 c 0,8,9
 283 1286 283 1286 282 1069 c 2,10,-1
 283 448 l 1,0,-1
1 1501 m 1,11,12
 1 1313 1 1313 0 1220 c 2,13,-1
 0 0 l 1,14,15
 269 0 269 0 297 0 c 0,16,17
 381 0 381 0 406 52.5 c 128,-1,18
 431 105 431 105 429 225 c 2,19,-1
 429 435 l 1,20,-1
 430 1054 l 1,21,-1
 430 1339 l 2,22,23
 430 1384 430 1384 405 1442 c 128,-1,24
 380 1500 380 1500 257 1500 c 0,25,26
 214 1500 214 1500 1 1501 c 1,11,12
EndSplineSet
Validated: 41
EndChar

StartChar: E
Encoding: 69 69 40
Width: 433
GlyphClass: 2
Flags: W
LayerCount: 2
Fore
SplineSet
0 0 m 1,0,-1
 333 0 l 1,1,-1
 333 143 l 1,2,-1
 143 143 l 1,3,-1
 143 714 l 1,4,-1
 333 714 l 1,5,-1
 333 857 l 1,6,-1
 143 857 l 1,7,-1
 143 1357 l 1,8,-1
 333 1357 l 1,9,-1
 333 1500 l 1,10,-1
 0 1500 l 1,11,-1
 0 0 l 1,0,-1
EndSplineSet
Validated: 9
EndChar

StartChar: F
Encoding: 70 70 41
Width: 433
GlyphClass: 2
Flags: W
LayerCount: 2
Fore
SplineSet
0 0 m 1,0,-1
 143 0 l 1,1,-1
 143 714 l 1,2,-1
 333 714 l 1,3,-1
 333 857 l 1,4,-1
 143 857 l 1,5,-1
 143 1357 l 1,6,-1
 333 1357 l 1,7,-1
 333 1500 l 1,8,-1
 0 1500 l 1,9,-1
 0 0 l 1,0,-1
EndSplineSet
Validated: 9
EndChar

StartChar: G
Encoding: 71 71 42
Width: 514
GlyphClass: 2
Flags: W
LayerCount: 2
Fore
SplineSet
256 611 m 1024,0,-1
429 745 m 1,1,-1
 429 223 l 2,2,3
 432 102 432 102 349 38.5 c 128,-1,4
 266 -25 266 -25 141 16.5 c 128,-1,5
 16 58 16 58 0 169 c 1,6,-1
 0 1222 l 2,7,8
 0 1315 0 1315 0 1335 c 4,9,10
 0 1510 0 1510 257 1500 c 5,11,12
 379 1474 379 1474 404 1430 c 0,13,14
 429 1389 429 1389 429 1343 c 2,15,-1
 429 1176 l 1,16,-1
 276 1176 l 1,17,18
 277 1285 277 1285 276 1312 c 0,19,20
 274 1362 274 1362 214 1361 c 0,21,22
 155 1360 155 1360 147 1299 c 1,23,-1
 147 205 l 1,24,25
 152 142 152 142 208.5 142 c 128,-1,26
 265 142 265 142 277 207 c 1,27,-1
 277 634 l 1,28,-1
 227 634 l 1,29,-1
 227 745 l 1,30,-1
 429 745 l 1,1,-1
429 745 m 1,31,-1
 429 223 l 2,32,33
 432 102 432 102 349 38.5 c 128,-1,34
 266 -25 266 -25 141 16.5 c 128,-1,35
 16 58 16 58 0 169 c 1,36,-1
 0 1222 l 2,37,38
 0 1315 0 1315 0 1335 c 0,39,40
 0 1510 0 1510 257 1500 c 1,41,42
 379 1474 379 1474 404 1430 c 0,43,44
 429 1389 429 1389 429 1343 c 2,45,-1
 429 1176 l 1,46,-1
 276 1176 l 1,47,48
 277 1285 277 1285 276 1312 c 0,49,50
 274 1362 274 1362 214 1361 c 0,51,52
 155 1360 155 1360 147 1299 c 1,53,-1
 147 205 l 1,54,55
 152 142 152 142 208.5 145 c 128,-1,56
 265 148 265 148 277 213 c 1,57,-1
 277 640 l 1,58,-1
 227 634 l 1,59,-1
 227 745 l 1,60,-1
 429 745 l 1,31,-1
EndSplineSet
Validated: 37
EndChar

StartChar: H
Encoding: 72 72 43
Width: 581
GlyphClass: 2
Flags: W
LayerCount: 2
Fore
SplineSet
0 0 m 1,0,-1
 130 0 l 1,1,-1
 130 722 l 1,2,-1
 352 722 l 1,3,-1
 352 0 l 1,4,-1
 481 0 l 1,5,-1
 481 1500 l 1,6,-1
 352 1500 l 1,7,-1
 352 866 l 1,8,-1
 130 865 l 1,9,-1
 128 1500 l 1,10,-1
 0 1500 l 1,11,-1
 0 0 l 1,0,-1
EndSplineSet
Validated: 9
EndChar

StartChar: I
Encoding: 73 73 44
Width: 230
GlyphClass: 2
Flags: W
LayerCount: 2
Fore
SplineSet
0 0 m 1,0,-1
 130 0 l 1,1,-1
 130 1500 l 1,2,-1
 0 1500 l 1,3,-1
 0 0 l 1,0,-1
EndSplineSet
Validated: 9
EndChar

StartChar: J
Encoding: 74 74 45
Width: 528
GlyphClass: 2
Flags: W
LayerCount: 2
Fore
SplineSet
428 1501 m 1,0,-1
 428 169 l 1,1,2
 412 58 412 58 297 16.5 c 128,-1,3
 182 -25 182 -25 89 38.5 c 128,-1,4
 -4 102 -4 102 -1 223 c 2,5,-1
 -1 435 l 1,6,-1
 152 435 l 1,7,-1
 151 207 l 2,8,9
 153 142 153 142 214.5 142 c 128,-1,10
 276 142 276 142 281 205 c 1,11,-1
 281 1500 l 1,12,-1
 428 1501 l 1,0,-1
EndSplineSet
Validated: 33
EndChar

StartChar: K
Encoding: 75 75 46
Width: 644
GlyphClass: 2
Flags: W
LayerCount: 2
Fore
SplineSet
144 945 m 1,0,-1
 144 1500 l 1,1,-1
 0 1500 l 1,2,-1
 0 0 l 1,3,-1
 144 0 l 1,4,-1
 144 630 l 1,5,-1
 361 0 l 1,6,-1
 545 0 l 1,7,-1
 264 847 l 1,8,-1
 541 1501 l 1,9,-1
 385 1500 l 1,10,-1
 144 945 l 1,0,-1
EndSplineSet
Validated: 9
EndChar

StartChar: L
Encoding: 76 76 47
Width: 10980
GlyphClass: 2
Flags: W
LayerCount: 2
Fore
SplineSet
461 1014 m 1,0,-1
 386 1014 l 1,1,-1
 328 1183 l 1,2,-1
 113 1183 l 1,3,-1
 61 1014 l 1,4,-1
 0 1014 l 1,5,-1
 189 1594 l 1,6,-1
 271 1594 l 1,7,-1
 461 1014 l 1,0,-1
301 1238 m 1,8,-1
 211 1517 l 1,9,-1
 121 1238 l 1,10,-1
 301 1238 l 1,8,-1
8265 1012 m 1,11,-1
 8198 1012 l 1,12,-1
 8198 1593 l 1,13,-1
 8265 1593 l 1,14,-1
 8265 1012 l 1,11,-1
1084 1015 m 256,15,16
 996 1015 996 1015 946 1080.5 c 128,-1,17
 896 1146 896 1146 896 1243 c 0,18,19
 896 1345 896 1345 952 1406.5 c 128,-1,20
 1008 1468 1008 1468 1091 1468 c 0,21,22
 1180 1468 1180 1468 1231 1403.5 c 128,-1,23
 1282 1339 1282 1339 1282 1242 c 0,24,25
 1282 1142 1282 1142 1227 1078.5 c 128,-1,26
 1172 1015 1172 1015 1084 1015 c 256,15,16
1089 1070 m 0,27,28
 1140 1070 1140 1070 1174.5 1112 c 128,-1,29
 1209 1154 1209 1154 1209 1243 c 256,30,31
 1209 1332 1209 1332 1173 1372.5 c 128,-1,32
 1137 1413 1137 1413 1088 1413 c 256,33,34
 1039 1413 1039 1413 1004.5 1372 c 128,-1,35
 970 1331 970 1331 970 1243 c 0,36,37
 970 1150 970 1150 1004.5 1110 c 128,-1,38
 1039 1070 1039 1070 1089 1070 c 0,27,28
1665 1014 m 1,39,-1
 1602 1014 l 1,40,-1
 1602 1290 l 2,41,42
 1602 1349 1602 1349 1576 1373.5 c 128,-1,43
 1550 1398 1550 1398 1513 1398 c 0,44,45
 1462 1398 1462 1398 1427.5 1357 c 128,-1,46
 1393 1316 1393 1316 1393 1249 c 2,47,-1
 1393 1014 l 1,48,-1
 1326 1014 l 1,49,-1
 1326 1443 l 1,50,-1
 1388 1443 l 1,51,-1
 1388 1364 l 1,52,53
 1440 1455 1440 1455 1524 1455 c 0,54,55
 1572 1455 1572 1455 1605.5 1430 c 128,-1,56
 1639 1405 1639 1405 1652 1374 c 128,-1,57
 1665 1343 1665 1343 1665 1262 c 2,58,-1
 1665 1014 l 1,39,-1
2696 1071 m 1,59,-1
 2696 1018 l 1,60,61
 2660 1013 2660 1013 2634 1013 c 0,62,63
 2510 1013 2510 1013 2510 1143 c 2,64,-1
 2510 1402 l 1,65,-1
 2433 1402 l 1,66,-1
 2433 1454 l 1,67,-1
 2510 1454 l 1,68,-1
 2513 1562 l 1,69,-1
 2575 1568 l 1,70,-1
 2575 1454 l 1,71,-1
 2671 1454 l 1,72,-1
 2671 1402 l 1,73,-1
 2575 1402 l 1,74,-1
 2575 1132 l 2,75,76
 2575 1066 2575 1066 2644 1066 c 0,77,78
 2667 1066 2667 1066 2696 1071 c 1,59,-1
2812 1594 m 1,79,-1
 2812 1520 l 1,80,-1
 2740 1520 l 1,81,-1
 2740 1594 l 1,82,-1
 2812 1594 l 1,79,-1
2810 1443 m 1,83,-1
 2810 1014 l 1,84,-1
 2743 1014 l 1,85,-1
 2743 1443 l 1,86,-1
 2810 1443 l 1,83,-1
3445 1014 m 1,87,-1
 3380 1014 l 1,88,-1
 3380 1281 l 2,89,90
 3380 1322 3380 1322 3374 1342.5 c 128,-1,91
 3368 1363 3368 1363 3346 1380.5 c 128,-1,92
 3324 1398 3324 1398 3296 1398 c 0,93,94
 3258 1398 3258 1398 3222.5 1363 c 128,-1,95
 3187 1328 3187 1328 3187 1256 c 2,96,-1
 3187 1014 l 1,97,-1
 3122 1014 l 1,98,-1
 3122 1297 l 2,99,100
 3122 1353 3122 1353 3095 1376.5 c 128,-1,101
 3068 1400 3068 1400 3038 1400 c 0,102,103
 2996 1400 2996 1400 2964.5 1363.5 c 128,-1,104
 2933 1327 2933 1327 2933 1271 c 2,105,-1
 2933 1014 l 1,106,-1
 2869 1014 l 1,107,-1
 2869 1443 l 1,108,-1
 2926 1443 l 1,109,-1
 2926 1361 l 1,110,111
 2974 1455 2974 1455 3059 1455 c 0,112,113
 3105 1455 3105 1455 3137.5 1425 c 128,-1,114
 3170 1395 3170 1395 3179 1352 c 1,115,116
 3223 1455 3223 1455 3315 1455 c 0,117,118
 3359 1455 3359 1455 3392 1430 c 128,-1,119
 3425 1405 3425 1405 3435 1372.5 c 128,-1,120
 3445 1340 3445 1340 3445 1281 c 2,121,-1
 3445 1014 l 1,87,-1
3831 1142 m 1,122,-1
 3893 1129 l 1,123,124
 3876 1074 3876 1074 3827 1038 c 128,-1,125
 3778 1002 3778 1002 3711 1002 c 0,126,127
 3623 1002 3623 1002 3568.5 1064 c 128,-1,128
 3514 1126 3514 1126 3514 1226 c 0,129,130
 3514 1329 3514 1329 3570.5 1392 c 128,-1,131
 3627 1455 3627 1455 3713 1455 c 0,132,133
 3797 1455 3797 1455 3848 1397 c 128,-1,134
 3899 1339 3899 1339 3901 1222 c 1,135,-1
 3588 1222 l 1,136,137
 3588 1125 3588 1125 3629 1091 c 128,-1,138
 3670 1057 3670 1057 3716 1057 c 0,139,140
 3798 1057 3798 1057 3831 1142 c 1,122,-1
3828 1272 m 1,141,142
 3827 1308 3827 1308 3816 1336.5 c 128,-1,143
 3805 1365 3805 1365 3778.5 1384.5 c 128,-1,144
 3752 1404 3752 1404 3715 1404 c 0,145,146
 3665 1404 3665 1404 3630.5 1368.5 c 128,-1,147
 3596 1333 3596 1333 3591 1272 c 1,148,-1
 3828 1272 l 1,141,142
4562 1014 m 1,149,-1
 4496 1014 l 1,150,151
 4492 1034 4492 1034 4488 1091 c 1,152,153
 4444 1002 4444 1002 4337 1002 c 0,154,155
 4265 1002 4265 1002 4226.5 1040.5 c 128,-1,156
 4188 1079 4188 1079 4188 1132 c 0,157,158
 4188 1197 4188 1197 4243 1239 c 128,-1,159
 4298 1281 4298 1281 4431 1281 c 0,160,161
 4449 1281 4449 1281 4488 1279 c 1,162,163
 4488 1331 4488 1331 4480 1353.5 c 128,-1,164
 4472 1376 4472 1376 4446.5 1389.5 c 128,-1,165
 4421 1403 4421 1403 4380 1403 c 0,166,167
 4278 1403 4278 1403 4261 1326 c 1,168,-1
 4200 1336 l 1,169,170
 4222 1455 4222 1455 4389 1455 c 0,171,172
 4478 1455 4478 1455 4515.5 1415.5 c 128,-1,173
 4553 1376 4553 1376 4553 1279 c 2,174,-1
 4553 1097 l 2,175,176
 4553 1051 4553 1051 4562 1014 c 1,149,-1
4488 1228 m 1,177,178
 4447 1231 4447 1231 4426 1231 c 0,179,180
 4347 1231 4347 1231 4303 1205 c 128,-1,181
 4259 1179 4259 1179 4259 1129 c 0,182,183
 4259 1098 4259 1098 4282.5 1076 c 128,-1,184
 4306 1054 4306 1054 4351 1054 c 0,185,186
 4411 1054 4411 1054 4450 1097.5 c 128,-1,187
 4489 1141 4489 1141 4489 1200 c 0,188,189
 4489 1212 4489 1212 4488 1228 c 1,177,178
1919 1159 m 256,190,191
 1962 1159 1962 1159 1989 1185 c 128,-1,192
 2016 1211 2016 1211 2016 1253 c 256,193,194
 2016 1295 2016 1295 1988 1322 c 128,-1,195
 1960 1349 1960 1349 1920 1349 c 0,196,197
 1882 1349 1882 1349 1853 1324 c 128,-1,198
 1824 1299 1824 1299 1824 1252 c 0,199,200
 1824 1210 1824 1210 1850 1184.5 c 128,-1,201
 1876 1159 1876 1159 1919 1159 c 256,190,191
1839 977 m 1,202,203
 1793 957 1793 957 1793 918 c 0,204,205
 1793 885 1793 885 1831.5 867 c 128,-1,206
 1870 849 1870 849 1929 849 c 0,207,208
 1985 849 1985 849 2030.5 864.5 c 128,-1,209
 2076 880 2076 880 2076 917 c 0,210,211
 2076 937 2076 937 2062.5 950 c 128,-1,212
 2049 963 2049 963 2025.5 966.5 c 128,-1,213
 2002 970 2002 970 1943 971 c 0,214,215
 1873 973 1873 973 1839 977 c 1,202,203
2124 1457 m 1,216,-1
 2124 1403 l 1,217,218
 2078 1403 2078 1403 2062.5 1392.5 c 128,-1,219
 2047 1382 2047 1382 2042 1355 c 1,220,221
 2083 1307 2083 1307 2083 1251 c 0,222,223
 2083 1192 2083 1192 2038 1150 c 128,-1,224
 1993 1108 1993 1108 1917 1108 c 0,225,226
 1900 1108 1900 1108 1888 1110 c 0,227,228
 1865 1115 1865 1115 1859 1115 c 0,229,230
 1847 1115 1847 1115 1831 1104 c 128,-1,231
 1815 1093 1815 1093 1815 1075 c 0,232,233
 1815 1049 1815 1049 1838.5 1041.5 c 128,-1,234
 1862 1034 1862 1034 1948 1032 c 0,235,236
 2022 1030 2022 1030 2057 1022 c 128,-1,237
 2092 1014 2092 1014 2116.5 987 c 128,-1,238
 2141 960 2141 960 2141 921 c 0,239,240
 2141 798 2141 798 1925 798 c 0,241,242
 1822 798 1822 798 1775 828.5 c 128,-1,243
 1728 859 1728 859 1728 911 c 0,244,245
 1728 973 1728 973 1793 997 c 1,246,247
 1751 1024 1751 1024 1751 1066 c 0,248,249
 1751 1116 1751 1116 1811 1142 c 1,250,251
 1755 1187 1755 1187 1755 1256 c 0,252,253
 1755 1320 1755 1320 1802.5 1360.5 c 128,-1,254
 1850 1401 1850 1401 1919 1401 c 0,255,256
 1968 1401 1968 1401 2007 1383 c 1,257,258
 2013 1425 2013 1425 2036.5 1441 c 128,-1,259
 2060 1457 2060 1457 2107 1457 c 0,260,261
 2112 1457 2112 1457 2124 1457 c 1,216,-1
4784 1162 m 256,262,263
 4827 1162 4827 1162 4853.5 1188 c 128,-1,264
 4880 1214 4880 1214 4880 1256 c 256,265,266
 4880 1298 4880 1298 4852.5 1325 c 128,-1,267
 4825 1352 4825 1352 4785 1352 c 0,268,269
 4747 1352 4747 1352 4717.5 1327 c 128,-1,270
 4688 1302 4688 1302 4688 1255 c 0,271,272
 4688 1213 4688 1213 4714.5 1187.5 c 128,-1,273
 4741 1162 4741 1162 4784 1162 c 256,262,263
4704 980 m 1,274,275
 4657 960 4657 960 4657 921 c 0,276,277
 4657 888 4657 888 4695.5 870 c 128,-1,278
 4734 852 4734 852 4794 852 c 0,279,280
 4849 852 4849 852 4895 867.5 c 128,-1,281
 4941 883 4941 883 4941 920 c 0,282,283
 4941 940 4941 940 4927.5 953 c 128,-1,284
 4914 966 4914 966 4890.5 969 c 128,-1,285
 4867 972 4867 972 4808 974 c 0,286,287
 4738 976 4738 976 4704 980 c 1,274,275
4988 1459 m 1,288,-1
 4988 1406 l 1,289,290
 4942 1406 4942 1406 4926.5 1395.5 c 128,-1,291
 4911 1385 4911 1385 4906 1357 c 1,292,293
 4947 1310 4947 1310 4947 1254 c 0,294,295
 4947 1195 4947 1195 4902.5 1153 c 128,-1,296
 4858 1111 4858 1111 4782 1111 c 0,297,298
 4765 1111 4765 1111 4753 1113 c 0,299,300
 4729 1118 4729 1118 4723 1118 c 0,301,302
 4712 1118 4712 1118 4695.5 1106.5 c 128,-1,303
 4679 1095 4679 1095 4679 1077 c 0,304,305
 4679 1052 4679 1052 4702.5 1044.5 c 128,-1,306
 4726 1037 4726 1037 4813 1034 c 0,307,308
 4887 1032 4887 1032 4922 1024.5 c 128,-1,309
 4957 1017 4957 1017 4981 990 c 128,-1,310
 5005 963 5005 963 5005 923 c 0,311,312
 5005 801 5005 801 4789 801 c 0,313,314
 4687 801 4687 801 4640 831.5 c 128,-1,315
 4593 862 4593 862 4593 914 c 0,316,317
 4593 976 4593 976 4658 1000 c 1,318,319
 4616 1027 4616 1027 4616 1069 c 0,320,321
 4616 1119 4616 1119 4676 1145 c 1,322,323
 4620 1190 4620 1190 4620 1259 c 0,324,325
 4620 1322 4620 1322 4667.5 1363 c 128,-1,326
 4715 1404 4715 1404 4784 1404 c 0,327,328
 4832 1404 4832 1404 4872 1386 c 1,329,330
 4878 1428 4878 1428 4901.5 1444 c 128,-1,331
 4925 1460 4925 1460 4972 1460 c 0,332,333
 4976 1460 4976 1460 4988 1459 c 1,288,-1
5218 1013 m 256,334,335
 5130 1013 5130 1013 5080 1078.5 c 128,-1,336
 5030 1144 5030 1144 5030 1241 c 0,337,338
 5030 1344 5030 1344 5086 1405 c 128,-1,339
 5142 1466 5142 1466 5225 1466 c 0,340,341
 5314 1466 5314 1466 5365 1401.5 c 128,-1,342
 5416 1337 5416 1337 5416 1241 c 0,343,344
 5416 1140 5416 1140 5361 1076.5 c 128,-1,345
 5306 1013 5306 1013 5218 1013 c 256,334,335
5223 1068 m 0,346,347
 5274 1068 5274 1068 5308.5 1110 c 128,-1,348
 5343 1152 5343 1152 5343 1241 c 256,349,350
 5343 1330 5343 1330 5307 1370.5 c 128,-1,351
 5271 1411 5271 1411 5222 1411 c 256,352,353
 5173 1411 5173 1411 5138.5 1370.5 c 128,-1,354
 5104 1330 5104 1330 5104 1242 c 0,355,356
 5104 1148 5104 1148 5138.5 1108 c 128,-1,357
 5173 1068 5173 1068 5223 1068 c 0,346,347
5773 1594 m 1,358,-1
 5773 1520 l 1,359,-1
 5701 1520 l 1,360,-1
 5701 1594 l 1,361,-1
 5773 1594 l 1,358,-1
5770 1443 m 1,362,-1
 5770 1013 l 1,363,-1
 5704 1013 l 1,364,-1
 5704 1443 l 1,365,-1
 5770 1443 l 1,362,-1
6272 1013 m 1,366,-1
 6210 1013 l 1,367,-1
 6210 1289 l 2,368,369
 6210 1348 6210 1348 6184 1372.5 c 128,-1,370
 6158 1397 6158 1397 6121 1397 c 0,371,372
 6070 1397 6070 1397 6035 1356 c 128,-1,373
 6000 1315 6000 1315 6000 1248 c 2,374,-1
 6000 1013 l 1,375,-1
 5933 1013 l 1,376,-1
 5933 1442 l 1,377,-1
 5996 1442 l 1,378,-1
 5996 1363 l 1,379,380
 6048 1454 6048 1454 6131 1454 c 0,381,382
 6179 1454 6179 1454 6213 1429 c 128,-1,383
 6247 1404 6247 1404 6259.5 1373 c 128,-1,384
 6272 1342 6272 1342 6272 1261 c 2,385,-1
 6272 1013 l 1,366,-1
7689 1435 m 1,386,-1
 7689 1382 l 1,387,388
 7643 1382 7643 1382 7627.5 1371.5 c 128,-1,389
 7612 1361 7612 1361 7607 1333 c 1,390,391
 7648 1286 7648 1286 7648 1230 c 0,392,393
 7648 1171 7648 1171 7603 1129 c 128,-1,394
 7558 1087 7558 1087 7482 1087 c 0,395,396
 7465 1087 7465 1087 7453 1089 c 0,397,398
 7430 1094 7430 1094 7424 1094 c 0,399,400
 7412 1094 7412 1094 7396 1082.5 c 128,-1,401
 7380 1071 7380 1071 7380 1054 c 0,402,403
 7380 1028 7380 1028 7403.5 1020.5 c 128,-1,404
 7427 1013 7427 1013 7513 1011 c 0,405,406
 7587 1008 7587 1008 7622 1000.5 c 128,-1,407
 7657 993 7657 993 7681.5 966 c 128,-1,408
 7706 939 7706 939 7706 900 c 0,409,410
 7706 777 7706 777 7490 777 c 0,411,412
 7387 777 7387 777 7340 807.5 c 128,-1,413
 7293 838 7293 838 7293 890 c 0,414,415
 7293 952 7293 952 7359 976 c 1,416,417
 7316 1003 7316 1003 7316 1045 c 0,418,419
 7316 1095 7316 1095 7376 1121 c 1,420,421
 7320 1166 7320 1166 7320 1235 c 0,422,423
 7320 1299 7320 1299 7368 1339.5 c 128,-1,424
 7416 1380 7416 1380 7484 1380 c 0,425,426
 7533 1380 7533 1380 7572 1362 c 1,427,428
 7579 1404 7579 1404 7602 1420 c 128,-1,429
 7625 1436 7625 1436 7672 1436 c 0,430,431
 7677 1436 7677 1436 7689 1435 c 1,386,-1
7485 1138 m 0,432,433
 7527 1138 7527 1138 7554 1164 c 128,-1,434
 7581 1190 7581 1190 7581 1232 c 256,435,436
 7581 1274 7581 1274 7553 1301 c 128,-1,437
 7525 1328 7525 1328 7485 1328 c 0,438,439
 7447 1328 7447 1328 7418 1303 c 128,-1,440
 7389 1278 7389 1278 7389 1231 c 0,441,442
 7389 1189 7389 1189 7415.5 1163.5 c 128,-1,443
 7442 1138 7442 1138 7485 1138 c 0,432,433
7405 956 m 1,444,445
 7358 936 7358 936 7358 897 c 0,446,447
 7358 864 7358 864 7396.5 846 c 128,-1,448
 7435 828 7435 828 7494 828 c 0,449,450
 7550 828 7550 828 7596 843.5 c 128,-1,451
 7642 859 7642 859 7642 896 c 0,452,453
 7642 916 7642 916 7628 929 c 128,-1,454
 7614 942 7614 942 7590.5 945 c 128,-1,455
 7567 948 7567 948 7508 950 c 0,456,457
 7438 952 7438 952 7405 956 c 1,444,445
6958 1013 m 1,458,-1
 6892 1013 l 1,459,460
 6888 1034 6888 1034 6884 1091 c 1,461,462
 6840 1002 6840 1002 6734 1002 c 0,463,464
 6661 1002 6661 1002 6622.5 1040 c 128,-1,465
 6584 1078 6584 1078 6584 1132 c 0,466,467
 6584 1197 6584 1197 6639.5 1239 c 128,-1,468
 6695 1281 6695 1281 6827 1281 c 0,469,470
 6845 1281 6845 1281 6884 1279 c 1,471,472
 6884 1330 6884 1330 6876.5 1353 c 128,-1,473
 6869 1376 6869 1376 6843.5 1389.5 c 128,-1,474
 6818 1403 6818 1403 6776 1403 c 0,475,476
 6674 1403 6674 1403 6658 1325 c 1,477,-1
 6596 1336 l 1,478,479
 6618 1455 6618 1455 6786 1455 c 0,480,481
 6875 1455 6875 1455 6912 1415.5 c 128,-1,482
 6949 1376 6949 1376 6949 1279 c 2,483,-1
 6949 1097 l 2,484,485
 6949 1051 6949 1051 6958 1013 c 1,458,-1
6884 1228 m 1,486,487
 6844 1231 6844 1231 6822 1231 c 0,488,489
 6743 1231 6743 1231 6699 1205 c 128,-1,490
 6655 1179 6655 1179 6655 1129 c 0,491,492
 6655 1097 6655 1097 6679 1075 c 128,-1,493
 6703 1053 6703 1053 6747 1053 c 0,494,495
 6808 1053 6808 1053 6847 1097 c 128,-1,496
 6886 1141 6886 1141 6886 1200 c 0,497,498
 6886 1212 6886 1212 6884 1228 c 1,486,487
8085 1013 m 1,499,-1
 8019 1013 l 1,500,501
 8015 1034 8015 1034 8011 1091 c 1,502,503
 7967 1002 7967 1002 7861 1002 c 0,504,505
 7788 1002 7788 1002 7749.5 1040.5 c 128,-1,506
 7711 1079 7711 1079 7711 1132 c 0,507,508
 7711 1197 7711 1197 7766 1239 c 128,-1,509
 7821 1281 7821 1281 7954 1281 c 0,510,511
 7972 1281 7972 1281 8011 1279 c 1,512,513
 8011 1330 8011 1330 8003.5 1353 c 128,-1,514
 7996 1376 7996 1376 7970 1389.5 c 128,-1,515
 7944 1403 7944 1403 7903 1403 c 0,516,517
 7801 1403 7801 1403 7784 1326 c 1,518,-1
 7723 1336 l 1,519,520
 7745 1455 7745 1455 7913 1455 c 0,521,522
 8001 1455 8001 1455 8038.5 1415.5 c 128,-1,523
 8076 1376 8076 1376 8076 1279 c 2,524,-1
 8076 1097 l 2,525,526
 8076 1051 8076 1051 8085 1013 c 1,499,-1
8011 1228 m 1,527,528
 7970 1231 7970 1231 7949 1231 c 0,529,530
 7870 1231 7870 1231 7826 1205 c 128,-1,531
 7782 1179 7782 1179 7782 1129 c 0,532,533
 7782 1098 7782 1098 7806 1075.5 c 128,-1,534
 7830 1053 7830 1053 7874 1053 c 0,535,536
 7935 1053 7935 1053 7974 1097 c 128,-1,537
 8013 1141 8013 1141 8013 1200 c 0,538,539
 8013 1212 8013 1212 8011 1228 c 1,527,528
793 1014 m 1,540,-1
 726 1014 l 1,541,-1
 726 1594 l 1,542,-1
 793 1594 l 1,543,-1
 793 1014 l 1,540,-1
8768 1012 m 1,544,-1
 8702 1012 l 1,545,546
 8698 1033 8698 1033 8694 1090 c 1,547,548
 8650 1001 8650 1001 8544 1001 c 0,549,550
 8471 1001 8471 1001 8432.5 1039.5 c 128,-1,551
 8394 1078 8394 1078 8394 1131 c 0,552,553
 8394 1196 8394 1196 8449.5 1238 c 128,-1,554
 8505 1280 8505 1280 8637 1280 c 0,555,556
 8655 1280 8655 1280 8694 1278 c 1,557,558
 8694 1329 8694 1329 8686.5 1352 c 128,-1,559
 8679 1375 8679 1375 8653.5 1388.5 c 128,-1,560
 8628 1402 8628 1402 8586 1402 c 0,561,562
 8484 1402 8484 1402 8468 1325 c 1,563,-1
 8406 1335 l 1,564,565
 8428 1454 8428 1454 8596 1454 c 0,566,567
 8685 1454 8685 1454 8722 1414.5 c 128,-1,568
 8759 1375 8759 1375 8759 1278 c 2,569,-1
 8759 1096 l 2,570,571
 8759 1050 8759 1050 8768 1012 c 1,544,-1
8694 1227 m 1,572,573
 8654 1230 8654 1230 8632 1230 c 0,574,575
 8553 1230 8553 1230 8509 1204 c 128,-1,576
 8465 1178 8465 1178 8465 1128 c 0,577,578
 8465 1097 8465 1097 8489 1074.5 c 128,-1,579
 8513 1052 8513 1052 8557 1052 c 0,580,581
 8618 1052 8618 1052 8657 1096 c 128,-1,582
 8696 1140 8696 1140 8696 1199 c 0,583,584
 8696 1211 8696 1211 8694 1227 c 1,572,573
9163 1012 m 1,585,-1
 9086 1012 l 1,586,-1
 8977 1187 l 1,587,-1
 8865 1012 l 1,588,-1
 8800 1012 l 1,589,-1
 8944 1235 l 1,590,-1
 8814 1442 l 1,591,-1
 8891 1442 l 1,592,-1
 8983 1295 l 1,593,-1
 9076 1442 l 1,594,-1
 9141 1442 l 1,595,-1
 9016 1250 l 1,596,-1
 9163 1012 l 1,585,-1
3014 418 m 1,597,-1
 2841 -62 l 2,598,599
 2804 -166 2804 -166 2722 -166 c 0,600,601
 2696 -166 2696 -166 2664 -157 c 1,602,-1
 2664 -105 l 1,603,604
 2690 -111 2690 -111 2709 -111 c 0,605,606
 2741 -111 2741 -111 2762.5 -92.5 c 128,-1,607
 2784 -74 2784 -74 2805 -4 c 1,608,-1
 2657 418 l 1,609,-1
 2725 418 l 1,610,-1
 2840 95 l 1,611,-1
 2958 418 l 1,612,-1
 3014 418 l 1,597,-1
10044 1442 m 1,613,-1
 10044 1389 l 1,614,-1
 9942 1389 l 1,615,-1
 9942 1012 l 1,616,-1
 9875 1012 l 1,617,-1
 9875 1389 l 1,618,-1
 9802 1389 l 1,619,-1
 9802 1442 l 1,620,-1
 9875 1442 l 1,621,622
 9877 1545 9877 1545 9915 1575 c 128,-1,623
 9953 1605 9953 1605 10008 1605 c 0,624,625
 10035 1605 10035 1605 10069 1599 c 1,626,-1
 10069 1546 l 1,627,628
 10048 1551 10048 1551 10028 1551 c 0,629,630
 9984 1551 9984 1551 9963 1531.5 c 128,-1,631
 9942 1512 9942 1512 9942 1459 c 2,632,-1
 9942 1442 l 1,633,-1
 10044 1442 l 1,613,-1
10456 1014 m 1,634,-1
 10389 1014 l 1,635,636
 10386 1034 10386 1034 10382 1091 c 1,637,638
 10338 1002 10338 1002 10231 1002 c 0,639,640
 10159 1002 10159 1002 10120 1040.5 c 128,-1,641
 10081 1079 10081 1079 10081 1132 c 0,642,643
 10081 1197 10081 1197 10136.5 1239 c 128,-1,644
 10192 1281 10192 1281 10325 1281 c 0,645,646
 10343 1281 10343 1281 10382 1280 c 1,647,648
 10382 1331 10382 1331 10374 1353.5 c 128,-1,649
 10366 1376 10366 1376 10340.5 1389.5 c 128,-1,650
 10315 1403 10315 1403 10273 1403 c 0,651,652
 10172 1403 10172 1403 10155 1326 c 1,653,-1
 10093 1337 l 1,654,655
 10116 1455 10116 1455 10283 1455 c 0,656,657
 10372 1455 10372 1455 10409 1416 c 128,-1,658
 10446 1377 10446 1377 10446 1280 c 2,659,-1
 10446 1097 l 2,660,661
 10446 1052 10446 1052 10456 1014 c 1,634,-1
10382 1229 m 1,662,663
 10341 1231 10341 1231 10320 1231 c 0,664,665
 10241 1231 10241 1231 10197 1205 c 128,-1,666
 10153 1179 10153 1179 10153 1129 c 0,667,668
 10153 1098 10153 1098 10176.5 1076 c 128,-1,669
 10200 1054 10200 1054 10245 1054 c 0,670,671
 10305 1054 10305 1054 10344 1097.5 c 128,-1,672
 10383 1141 10383 1141 10383 1200 c 0,673,674
 10383 1212 10383 1212 10382 1229 c 1,662,663
10619 1014 m 1,675,-1
 10552 1014 l 1,676,-1
 10552 1443 l 1,677,-1
 10611 1443 l 1,678,-1
 10611 1343 l 1,679,680
 10642 1414 10642 1414 10673.5 1435 c 128,-1,681
 10705 1456 10705 1456 10737 1456 c 0,682,683
 10748 1456 10748 1456 10764 1454 c 1,684,-1
 10764 1391 l 1,685,-1
 10750 1391 l 2,686,687
 10695 1391 10695 1391 10658.5 1349.5 c 128,-1,688
 10622 1308 10622 1308 10619 1241 c 2,689,-1
 10619 1014 l 1,675,-1
242 430 m 1,690,-1
 242 377 l 1,691,-1
 140 377 l 1,692,-1
 140 0 l 1,693,-1
 73 0 l 1,694,-1
 73 377 l 1,695,-1
 0 377 l 1,696,-1
 0 430 l 1,697,-1
 73 430 l 1,698,699
 75 533 75 533 113 563 c 128,-1,700
 151 593 151 593 206 593 c 0,701,702
 233 593 233 593 268 587 c 1,703,-1
 268 534 l 1,704,705
 246 539 246 539 226 539 c 0,706,707
 182 539 182 539 161 519.5 c 128,-1,708
 140 500 140 500 140 447 c 2,709,-1
 140 430 l 1,710,-1
 242 430 l 1,690,-1
649 0 m 1,711,-1
 583 0 l 1,712,713
 579 20 579 20 575 77 c 1,714,715
 531 -12 531 -12 424 -12 c 0,716,717
 352 -12 352 -12 313.5 26.5 c 128,-1,718
 275 65 275 65 275 118 c 0,719,720
 275 183 275 183 330 225 c 128,-1,721
 385 267 385 267 518 267 c 0,722,723
 536 267 536 267 575 265 c 1,724,725
 575 317 575 317 567 339.5 c 128,-1,726
 559 362 559 362 533.5 375.5 c 128,-1,727
 508 389 508 389 466 389 c 0,728,729
 365 389 365 389 348 312 c 1,730,-1
 286 322 l 1,731,732
 309 441 309 441 476 441 c 0,733,734
 565 441 565 441 602.5 401.5 c 128,-1,735
 640 362 640 362 640 265 c 2,736,-1
 640 83 l 2,737,738
 640 37 640 37 649 0 c 1,711,-1
575 214 m 1,739,740
 534 217 534 217 513 217 c 0,741,742
 434 217 434 217 390 191 c 128,-1,743
 346 165 346 165 346 115 c 0,744,745
 346 84 346 84 369.5 62 c 128,-1,746
 393 40 393 40 438 40 c 0,747,748
 498 40 498 40 537 83.5 c 128,-1,749
 576 127 576 127 576 186 c 0,750,751
 576 198 576 198 575 214 c 1,739,740
813 0 m 1,752,-1
 746 0 l 1,753,-1
 746 429 l 1,754,-1
 805 429 l 1,755,-1
 805 329 l 1,756,757
 836 400 836 400 867.5 421 c 128,-1,758
 899 442 899 442 932 442 c 0,759,760
 942 442 942 442 958 440 c 1,761,-1
 958 377 l 1,762,-1
 944 377 l 2,763,764
 889 377 889 377 852.5 335.5 c 128,-1,765
 816 294 816 294 813 227 c 2,766,-1
 813 0 l 1,752,-1
10880 1111 m 1,767,-1
 10880 1023 l 1,768,-1
 10817 904 l 1,769,-1
 10781 904 l 1,770,-1
 10831 1014 l 1,771,-1
 10787 1014 l 1,772,-1
 10787 1111 l 1,773,-1
 10880 1111 l 1,767,-1
1650 -1 m 1,774,-1
 1584 -1 l 1,775,776
 1580 20 1580 20 1576 77 c 1,777,778
 1532 -12 1532 -12 1426 -12 c 0,779,780
 1353 -12 1353 -12 1314.5 26.5 c 128,-1,781
 1276 65 1276 65 1276 118 c 0,782,783
 1276 183 1276 183 1331 225 c 128,-1,784
 1386 267 1386 267 1519 267 c 0,785,786
 1537 267 1537 267 1576 265 c 1,787,788
 1576 316 1576 316 1568 339 c 128,-1,789
 1560 362 1560 362 1534.5 375.5 c 128,-1,790
 1509 389 1509 389 1468 389 c 0,791,792
 1366 389 1366 389 1349 312 c 1,793,-1
 1288 322 l 1,794,795
 1310 441 1310 441 1477 441 c 0,796,797
 1566 441 1566 441 1603.5 401.5 c 128,-1,798
 1641 362 1641 362 1641 265 c 2,799,-1
 1641 83 l 2,800,801
 1641 37 1641 37 1650 -1 c 1,774,-1
1576 214 m 1,802,803
 1535 217 1535 217 1514 217 c 0,804,805
 1435 217 1435 217 1391 191 c 128,-1,806
 1347 165 1347 165 1347 115 c 0,807,808
 1347 84 1347 84 1370.5 61.5 c 128,-1,809
 1394 39 1394 39 1439 39 c 0,810,811
 1500 39 1500 39 1538.5 83 c 128,-1,812
 1577 127 1577 127 1577 186 c 0,813,814
 1577 198 1577 198 1576 214 c 1,802,803
2219 429 m 1,815,-1
 2096 -1 l 1,816,-1
 2042 -1 l 1,817,-1
 1945 318 l 1,818,-1
 1857 -1 l 1,819,-1
 1802 -1 l 1,820,-1
 1674 429 l 1,821,-1
 1741 429 l 1,822,-1
 1834 108 l 1,823,-1
 1923 429 l 1,824,-1
 1972 429 l 1,825,-1
 2069 107 l 1,826,-1
 2165 429 l 1,827,-1
 2219 429 l 1,815,-1
2602 1 m 1,828,-1
 2536 1 l 1,829,830
 2532 21 2532 21 2528 78 c 1,831,832
 2484 -11 2484 -11 2377 -11 c 0,833,834
 2305 -11 2305 -11 2266 27.5 c 128,-1,835
 2227 66 2227 66 2227 119 c 0,836,837
 2227 184 2227 184 2282.5 226 c 128,-1,838
 2338 268 2338 268 2471 268 c 0,839,840
 2489 268 2489 268 2528 266 c 1,841,842
 2528 317 2528 317 2520 340 c 128,-1,843
 2512 363 2512 363 2486.5 376.5 c 128,-1,844
 2461 390 2461 390 2419 390 c 0,845,846
 2318 390 2318 390 2301 313 c 1,847,-1
 2239 323 l 1,848,849
 2262 442 2262 442 2429 442 c 0,850,851
 2518 442 2518 442 2555.5 402.5 c 128,-1,852
 2593 363 2593 363 2593 266 c 2,853,-1
 2593 84 l 2,854,855
 2593 38 2593 38 2602 1 c 1,828,-1
2528 215 m 1,856,857
 2487 218 2487 218 2466 218 c 0,858,859
 2387 218 2387 218 2343 192 c 128,-1,860
 2299 166 2299 166 2299 116 c 0,861,862
 2299 85 2299 85 2322.5 63 c 128,-1,863
 2346 41 2346 41 2391 41 c 0,864,865
 2451 41 2451 41 2490 84.5 c 128,-1,866
 2529 128 2529 128 2529 187 c 0,867,868
 2529 199 2529 199 2528 215 c 1,856,857
9566 1442 m 1,869,-1
 9393 962 l 2,870,871
 9356 858 9356 858 9274 858 c 0,872,873
 9248 858 9248 858 9216 867 c 1,874,-1
 9216 919 l 1,875,876
 9242 914 9242 914 9261 914 c 0,877,878
 9293 914 9293 914 9314.5 932 c 128,-1,879
 9336 950 9336 950 9357 1020 c 1,880,-1
 9209 1442 l 1,881,-1
 9277 1442 l 1,882,-1
 9391 1119 l 1,883,-1
 9509 1442 l 1,884,-1
 9566 1442 l 1,869,-1
3712 96 m 1,885,-1
 3712 1 l 1,886,-1
 3617 1 l 1,887,-1
 3617 96 l 1,888,-1
 3712 96 l 1,885,-1
3452 96 m 1,889,-1
 3452 1 l 1,890,-1
 3357 1 l 1,891,-1
 3357 96 l 1,892,-1
 3452 96 l 1,889,-1
3187 96 m 1,893,-1
 3187 1 l 1,894,-1
 3092 1 l 1,895,-1
 3092 96 l 1,896,-1
 3187 96 l 1,893,-1
EndSplineSet
Validated: 1
EndChar

StartChar: M
Encoding: 77 77 48
Width: 962
GlyphClass: 2
Flags: W
LayerCount: 2
Fore
SplineSet
0 0 m 1,0,-1
 141 0 l 1,1,-1
 141 1161 l 1,2,-1
 340 0 l 1,3,-1
 520 0 l 1,4,-1
 721 1161 l 1,5,-1
 721 0 l 1,6,-1
 862 0 l 1,7,-1
 862 1500 l 1,8,-1
 609 1500 l 1,9,-1
 431 278 l 1,10,-1
 253 1500 l 1,11,-1
 0 1500 l 1,12,-1
 0 0 l 1,0,-1
EndSplineSet
Validated: 9
EndChar

StartChar: N
Encoding: 78 78 49
Width: 661
GlyphClass: 2
Flags: W
LayerCount: 2
Fore
SplineSet
0 0 m 1,0,-1
 161 0 l 1,1,-1
 160 1113 l 1,2,-1
 346 0 l 1,3,-1
 561 0 l 1,4,-1
 561 1500 l 1,5,-1
 420 1500 l 1,6,-1
 420 408 l 1,7,-1
 222 1500 l 1,8,-1
 0 1500 l 1,9,-1
 0 0 l 1,0,-1
EndSplineSet
Validated: 9
EndChar

StartChar: O
Encoding: 79 79 50
Width: 529
GlyphClass: 2
Flags: W
LayerCount: 2
Fore
SplineSet
277 183 m 0,0,1
 275 128 275 128 212 128.5 c 128,-1,2
 149 129 149 129 148 181 c 2,3,-1
 148 1305 l 1,4,5
 154 1358 154 1358 212 1357 c 128,-1,6
 270 1356 270 1356 278 1304 c 0,7,8
 277 1291 277 1291 277 183 c 0,0,1
0 1271 m 2,9,-1
 0 219 l 2,10,11
 0 -1 0 -1 216 -0.5 c 128,-1,12
 432 0 432 0 430 223 c 2,13,-1
 430 1272 l 1,14,15
 426 1500 426 1500 208 1500 c 0,16,17
 1 1500 1 1500 0 1271 c 2,9,-1
EndSplineSet
Validated: 41
EndChar

StartChar: P
Encoding: 80 80 51
Width: 527
GlyphClass: 2
Flags: W
LayerCount: 2
Fore
SplineSet
1 1501 m 1,0,1
 1 1312 1 1312 0 1219 c 2,2,-1
 0 0 l 1,3,-1
 148 0 l 1,4,-1
 148 686 l 1,5,-1
 316 685 l 1,6,7
 427 724 427 724 427 843 c 2,8,-1
 427 1339 l 2,9,10
 427 1384 427 1384 403.5 1432 c 128,-1,11
 380 1480 380 1480 257 1500 c 1,12,13
 214 1500 214 1500 1 1501 c 1,0,1
277 912 m 0,14,15
 274 821 274 821 222.5 820 c 128,-1,16
 171 819 171 819 147 820 c 1,17,-1
 147 1380 l 2,18,19
 150 1380 150 1380 212 1380 c 128,-1,20
 274 1380 274 1380 277 1324 c 0,21,22
 278 1298 278 1298 277 912 c 0,14,15
EndSplineSet
Validated: 41
EndChar

StartChar: Q
Encoding: 81 81 52
Width: 529
GlyphClass: 2
Flags: W
LayerCount: 2
Fore
SplineSet
277 183 m 0,0,1
 275 128 275 128 212 128.5 c 128,-1,2
 149 129 149 129 148 181 c 2,3,-1
 148 1305 l 1,4,5
 154 1358 154 1358 212 1357 c 128,-1,6
 270 1356 270 1356 278 1304 c 0,7,8
 277 1291 277 1291 277 183 c 0,0,1
0 1271 m 2,9,-1
 0 219 l 2,10,11
 0 -1 0 -1 216 0 c 1,12,-1
 217 -9 l 1,13,-1
 430 -9 l 1,14,-1
 430 89 l 1,15,-1
 373 89 l 1,16,17
 420 105 420 105 430 223 c 1,18,-1
 430 1272 l 1,19,20
 426 1500 426 1500 208 1500 c 0,21,22
 1 1500 1 1500 0 1271 c 2,9,-1
EndSplineSet
Validated: 41
EndChar

StartChar: R
Encoding: 82 82 53
Width: 528
GlyphClass: 2
Flags: W
LayerCount: 2
Fore
SplineSet
1 1501 m 1,0,1
 1 1312 1 1312 0 1219 c 2,2,-1
 0 0 l 1,3,-1
 140 0 l 1,4,-1
 139 661 l 1,5,6
 291 678 291 678 290 571 c 2,7,-1
 289 0 l 1,8,-1
 427 0 l 1,9,-1
 428 676 l 2,10,11
 428 745 428 745 366 765 c 1,12,13
 427 784 427 784 428 863 c 2,14,-1
 428 1055 l 1,15,-1
 428 1339 l 2,16,17
 427 1384 427 1384 403.5 1432 c 128,-1,18
 380 1480 380 1480 257 1500 c 1,19,20
 214 1500 214 1500 1 1501 c 1,0,1
277 912 m 0,21,22
 274 821 274 821 222.5 820 c 128,-1,23
 171 819 171 819 147 820 c 1,24,-1
 147 1380 l 2,25,26
 150 1380 150 1380 212 1380 c 128,-1,27
 274 1380 274 1380 277 1324 c 0,28,29
 278 1298 278 1298 277 912 c 0,21,22
EndSplineSet
Validated: 41
EndChar

StartChar: S
Encoding: 83 83 54
Width: 3410
GlyphClass: 2
Flags: W
LayerCount: 2
Fore
SplineSet
410.5 1441.5 m 128,-1,1
 371 1387 371 1387 359.5 1335 c 128,-1,2
 348 1283 348 1283 369 1216 c 1,3,-1
 384 1185 l 1,4,5
 479 1058 479 1058 484 1044 c 1,6,-1
 471 1042 l 1,7,-1
 -50 1042 l 1,8,-1
 -50 768 l 1,9,-1
 667 768 l 2,10,11
 683 766 683 766 706 775 c 2,12,-1
 752 794 l 1,13,14
 815 833 815 833 832 934.5 c 128,-1,15
 849 1036 849 1036 712 1207 c 1,16,17
 664 1257 664 1257 719 1263 c 1,18,-1
 1002 1263 l 1,19,-1
 1002 768 l 1,20,-1
 1265 768 l 1,21,-1
 1265 1259 l 1,22,-1
 1566 1259 l 1,23,-1
 1566 1500 l 1,24,-1
 513 1500 l 1,25,0
 450 1496 450 1496 410.5 1441.5 c 128,-1,1
1462 768 m 1,26,-1
 1732 768 l 1,27,-1
 1749 866 l 1,28,-1
 2007 866 l 1,29,-1
 2033 768 l 1,30,-1
 2298 768 l 1,31,-1
 2062 1500 l 1,32,-1
 1712 1500 l 1,33,-1
 1462 768 l 1,26,-1
2346 768 m 1,34,-1
 2625 768 l 1,35,-1
 2625 944 l 1,36,-1
 2835 768 l 1,37,-1
 3311 768 l 1,38,-1
 3311 1020 l 1,39,-1
 2975 1020 l 1,40,-1
 2937 1053 l 1,41,42
 3035 1099 3035 1099 3054 1196 c 0,43,44
 3073 1277 3073 1277 3042 1343 c 0,45,46
 2998 1443 2998 1443 2934 1472.5 c 128,-1,47
 2870 1502 2870 1502 2798 1500 c 2,48,-1
 2346 1500 l 1,49,-1
 2346 768 l 1,34,-1
1521 1452 m 1,50,-1
 1521 1298 l 1,51,-1
 1218 1298 l 1,52,-1
 1218 811 l 1,53,-1
 1053 811 l 1,54,-1
 1053 1298 l 1,55,-1
 708 1300 l 2,56,57
 668 1300 668 1300 651.5 1292.5 c 128,-1,58
 635 1285 635 1285 631 1267 c 128,-1,59
 627 1249 627 1249 633.5 1233 c 128,-1,60
 640 1217 640 1217 668 1184.5 c 128,-1,61
 696 1152 696 1152 734 1092 c 1,62,63
 838 904 838 904 700 822 c 0,64,65
 679 809 679 809 665 811 c 2,66,-1
 -6 811 l 1,67,-1
 -6 1000 l 1,68,-1
 485 1000 l 2,69,70
 529 1000 529 1000 537 1019.5 c 128,-1,71
 545 1039 545 1039 539 1057 c 1,72,73
 420 1228 420 1228 407 1282 c 128,-1,74
 394 1336 394 1336 476 1435 c 1,75,76
 502 1454 502 1454 530 1452 c 2,77,-1
 1521 1452 l 1,50,-1
2021 1452 m 1,78,-1
 2231 811 l 1,79,-1
 2055 811 l 1,80,-1
 2033 907 l 1,81,-1
 1719 907 l 1,82,-1
 1705 811 l 1,83,-1
 1521 811 l 1,84,-1
 1736 1452 l 1,85,-1
 2021 1452 l 1,78,-1
2700 1452 m 1,86,-1
 2810 1452 l 1,87,88
 2916 1441 2916 1441 2951 1393.5 c 128,-1,89
 2986 1346 2986 1346 3001.5 1289.5 c 128,-1,90
 3017 1233 3017 1233 2986.5 1168.5 c 128,-1,91
 2956 1104 2956 1104 2877 1076 c 1,92,-1
 2877 1035 l 1,93,-1
 2931 983 l 1,94,-1
 3265 983 l 1,95,-1
 3265 811 l 1,96,-1
 2852 811 l 1,97,98
 2609 1030 2609 1030 2602 1037 c 128,-1,99
 2595 1044 2595 1044 2575 1042 c 1,100,-1
 2575 811 l 1,101,-1
 2386 811 l 1,102,-1
 2386 1452 l 1,103,-1
 2700 1452 l 1,86,-1
1769 1040 m 1,104,-1
 1986 1040 l 1,105,-1
 1881 1357 l 1,106,-1
 1769 1040 l 1,104,-1
2575 1159 m 1,107,-1
 2794 1159 l 2,108,109
 2858 1159 2858 1159 2859 1238 c 128,-1,110
 2860 1317 2860 1317 2794 1317 c 2,111,-1
 2575 1317 l 1,112,-1
 2575 1159 l 1,107,-1
2766 1278 m 2,113,114
 2802 1278 2802 1278 2802.5 1238 c 128,-1,115
 2803 1198 2803 1198 2764 1198 c 2,116,-1
 2625 1198 l 1,117,-1
 2625 1278 l 1,118,-1
 2766 1278 l 2,113,114
1925 1089 m 1,119,-1
 1832 1089 l 1,120,-1
 1881 1216 l 1,121,-1
 1925 1089 l 1,119,-1
189 -1 m 1,122,-1
 378 -1 l 1,123,-1
 482 297 l 1,124,-1
 582 -1 l 1,125,-1
 773 -1 l 1,126,-1
 1014 733 l 1,127,-1
 745 733 l 1,128,-1
 678 553 l 1,129,-1
 619 733 l 1,130,-1
 359 733 l 1,131,-1
 291 540 l 1,132,-1
 228 733 l 1,133,-1
 -26 733 l 1,134,-1
 189 -1 l 1,122,-1
1797 -1 m 1,135,-1
 2075 -1 l 1,136,-1
 2075 179 l 1,137,-1
 2273 -1 l 1,138,-1
 2929 -1 l 2,139,140
 3014 1 3014 1 3038 19 c 128,-1,141
 3062 37 3062 37 3082.5 60 c 128,-1,142
 3103 83 3103 83 3120 142.5 c 128,-1,143
 3137 202 3137 202 3117 260 c 128,-1,144
 3097 318 3097 318 3080 342.5 c 128,-1,145
 3063 367 3063 367 3051 383.5 c 128,-1,146
 3039 400 3039 400 3006.5 438.5 c 128,-1,147
 2974 477 2974 477 2996.5 480 c 128,-1,148
 3019 483 3019 483 3044 483 c 2,149,-1
 3311 483 l 1,150,-1
 3311 733 l 1,151,-1
 2840 733 l 2,152,153
 2805 733 2805 733 2782 725.5 c 128,-1,154
 2759 718 2759 718 2750 712 c 0,155,156
 2690 659 2690 659 2671 601.5 c 128,-1,157
 2652 544 2652 544 2654.5 508.5 c 128,-1,158
 2657 473 2657 473 2666.5 449 c 128,-1,159
 2676 425 2676 425 2690 400.5 c 128,-1,160
 2704 376 2704 376 2712.5 365 c 128,-1,161
 2721 354 2721 354 2729.5 344.5 c 128,-1,162
 2738 335 2738 335 2762 312.5 c 128,-1,163
 2786 290 2786 290 2795.5 280.5 c 128,-1,164
 2805 271 2805 271 2787 266 c 1,165,-1
 2427 266 l 1,166,-1
 2392 283 l 1,167,168
 2490 312 2490 312 2511.5 448.5 c 128,-1,169
 2533 585 2533 585 2452.5 658 c 128,-1,170
 2372 731 2372 731 2257 733 c 2,171,-1
 1797 733 l 1,172,-1
 1797 -1 l 1,135,-1
886 -1 m 1,173,-1
 1156 -1 l 1,174,-1
 1173 97 l 1,175,-1
 1430 97 l 1,176,-1
 1454 -1 l 1,177,-1
 1721 -1 l 1,178,-1
 1486 731 l 1,179,-1
 1136 731 l 1,180,-1
 886 -1 l 1,173,-1
1445 683 m 1,181,-1
 1653 40 l 1,182,-1
 1490 40 l 1,183,-1
 1466 138 l 1,184,-1
 1132 138 l 1,185,-1
 1117 40 l 1,186,-1
 945 40 l 1,187,-1
 1160 683 l 1,188,-1
 1445 683 l 1,181,-1
41 681 m 1,189,-1
 183 681 l 1,190,-1
 271 423 l 1,191,-1
 315 423 l 1,192,-1
 409 681 l 1,193,-1
 576 681 l 1,194,-1
 661 434 l 1,195,-1
 695 434 l 1,196,-1
 782 681 l 1,197,-1
 952 681 l 1,198,-1
 750 47 l 1,199,-1
 614 47 l 1,200,-1
 500 418 l 1,201,-1
 461 418 l 1,202,-1
 337 47 l 1,203,-1
 213 47 l 1,204,-1
 41 681 l 1,205,-1
 41 681 l 1,189,-1
2268 681 m 1,206,207
 2474 650 2474 650 2459 453 c 1,208,209
 2430 334 2430 334 2312 295 c 1,210,-1
 2312 258 l 1,211,-1
 2407 221 l 1,212,-1
 2418 221 l 1,213,-1
 2811 221 l 2,214,215
 2838 220 2838 220 2865.5 234.5 c 128,-1,216
 2893 249 2893 249 2842 305 c 1,217,218
 2724 410 2724 410 2706 488 c 128,-1,219
 2688 566 2688 566 2764 657 c 0,220,221
 2787 682 2787 682 2844 681 c 2,222,-1
 3265 681 l 1,223,-1
 3263 522 l 1,224,-1
 3052 522 l 2,225,226
 2954 523 2954 523 2942.5 495 c 128,-1,227
 2931 467 2931 467 2974 409 c 1,228,229
 3140 219 3140 219 3037 82 c 0,230,231
 3006 44 3006 44 2944 47 c 2,232,-1
 2292 47 l 1,233,-1
 2071 260 l 1,234,-1
 2023 260 l 1,235,-1
 2023 47 l 1,236,-1
 1853 47 l 1,237,-1
 1853 681 l 1,238,-1
 2268 681 l 1,206,207
1191 270 m 1,239,-1
 1410 270 l 1,240,-1
 1304 586 l 1,241,-1
 1191 270 l 1,239,-1
1349 320 m 1,242,-1
 1256 320 l 1,243,-1
 1304 446 l 1,244,-1
 1349 320 l 1,242,-1
2003 407 m 1,245,-1
 2222 407 l 2,246,247
 2286 407 2286 407 2287 486 c 128,-1,248
 2288 565 2288 565 2222 565 c 2,249,-1
 2003 565 l 1,250,-1
 2003 407 l 1,245,-1
2194 526 m 2,251,252
 2230 526 2230 526 2230.5 486 c 128,-1,253
 2231 446 2231 446 2192 446 c 2,254,-1
 2053 446 l 1,255,-1
 2053 526 l 1,256,-1
 2194 526 l 2,251,252
EndSplineSet
Validated: 37
EndChar

StartChar: T
Encoding: 84 84 55
Width: 551
GlyphClass: 2
Flags: W
LayerCount: 2
Fore
SplineSet
0 1355 m 1,0,-1
 152 1356 l 1,1,-1
 152 -1 l 1,2,-1
 297 0 l 1,3,-1
 297 1356 l 1,4,-1
 452 1356 l 1,5,-1
 451 1500 l 1,6,-1
 0 1500 l 1,7,-1
 0 1355 l 1,0,-1
EndSplineSet
Validated: 9
EndChar

StartChar: U
Encoding: 85 85 56
Width: 529
GlyphClass: 2
Flags: W
LayerCount: 2
Fore
SplineSet
0 219 m 2,0,1
 0 -1 0 -1 216 -0.5 c 128,-1,2
 432 0 432 0 430 223 c 2,3,-1
 430 1500 l 1,4,-1
 279 1500 l 1,5,-1
 280 205 l 2,6,7
 279 137 279 137 213.5 137 c 128,-1,8
 148 137 148 137 149 205 c 2,9,-1
 148 1500 l 1,10,-1
 1 1500 l 1,11,-1
 0 219 l 2,0,1
EndSplineSet
Validated: 41
EndChar

StartChar: V
Encoding: 86 86 57
Width: 804
GlyphClass: 2
Flags: W
LayerCount: 2
Fore
SplineSet
273 1 m 1,0,-1
 426 0 l 1,1,-1
 704 1500 l 1,2,-1
 574 1500 l 1,3,-1
 574 1500 l 1,4,-1
 361 376 l 1,5,-1
 334 376 l 1,6,-1
 139 1500 l 1,7,-1
 0 1500 l 1,8,-1
 273 1 l 1,0,-1
EndSplineSet
Validated: 5
EndChar

StartChar: W
Encoding: 87 87 58
Width: 661
GlyphClass: 2
Flags: W
LayerCount: 2
Fore
SplineSet
0 1500 m 1,0,-1
 136 1500 l 1,1,-1
 171 549 l 1,2,-1
 255 1500 l 1,3,-1
 439 1500 l 1,4,-1
 525 549 l 1,5,-1
 560 1500 l 1,6,-1
 696 1500 l 1,7,-1
 611 0 l 1,8,-1
 419 0 l 1,9,-1
 348 1102 l 1,10,-1
 277 0 l 1,11,-1
 85 0 l 1,12,-1
 0 1500 l 1,0,-1
EndSplineSet
Validated: 1
EndChar

StartChar: X
Encoding: 88 88 59
Width: 853
GlyphClass: 2
Flags: W
LayerCount: 2
Fore
SplineSet
282 787 m 1,0,-1
 0 0 l 1,1,-1
 169 0 l 1,2,-1
 375 544 l 1,3,-1
 574 0 l 1,4,-1
 753 0 l 1,5,-1
 479 789 l 1,6,-1
 753 1500 l 1,7,-1
 583 1500 l 1,8,-1
 375 953 l 1,9,-1
 150 1500 l 1,10,-1
 0 1500 l 1,11,-1
 282 787 l 1,0,-1
EndSplineSet
Validated: 9
EndChar

StartChar: Y
Encoding: 89 89 60
Width: 853
GlyphClass: 2
Flags: W
LayerCount: 2
Fore
SplineSet
302 787 m 1,0,-1
 300 0 l 1,1,-1
 459 0 l 1,2,-1
 459 789 l 1,3,-1
 753 1500 l 1,4,-1
 583 1500 l 1,5,-1
 375 953 l 1,6,-1
 150 1500 l 1,7,-1
 0 1500 l 1,8,-1
 302 787 l 1,0,-1
EndSplineSet
Validated: 9
EndChar

StartChar: Z
Encoding: 90 90 61
Width: 699
GlyphClass: 2
Flags: W
LayerCount: 2
Fore
SplineSet
600 0 m 1,0,-1
 600 190 l 1,1,-1
 205 191 l 1,2,-1
 600 1315 l 1,3,-1
 600 1500 l 1,4,-1
 0 1500 l 1,5,-1
 0 1323 l 1,6,-1
 387 1323 l 1,7,-1
 0 174 l 1,8,-1
 0 0 l 1,9,-1
 600 0 l 1,0,-1
EndSplineSet
Validated: 9
EndChar

StartChar: bracketleft
Encoding: 91 91 62
Width: 523
GlyphClass: 2
Flags: W
LayerCount: 2
Fore
SplineSet
147 1365 m 1,0,-1
 501 1365 l 1,1,-1
 501 1250 l 1,2,-1
 341 1250 l 1,3,-1
 341 -227 l 1,4,-1
 501 -227 l 1,5,-1
 501 -342 l 1,6,-1
 147 -342 l 1,7,-1
 147 1365 l 1,0,-1
EndSplineSet
Validated: 1
EndChar

StartChar: backslash
Encoding: 92 92 63
Width: 977
GlyphClass: 2
Flags: W
LayerCount: 2
Fore
SplineSet
254 1365 m 1,0,-1
 1008 -342 l 1,1,-1
 852 -342 l 1,2,-1
 98 1365 l 1,3,-1
 254 1365 l 1,0,-1
EndSplineSet
Validated: 1
EndChar

StartChar: bracketright
Encoding: 93 93 64
Width: 523
GlyphClass: 2
Flags: W
LayerCount: 2
Fore
SplineSet
376 -342 m 1,0,-1
 22 -342 l 1,1,-1
 22 -227 l 1,2,-1
 183 -227 l 1,3,-1
 183 1250 l 1,4,-1
 22 1250 l 1,5,-1
 22 1365 l 1,6,-1
 376 1365 l 1,7,-1
 376 -342 l 1,0,-1
EndSplineSet
Validated: 1
EndChar

StartChar: asciicircum
Encoding: 94 94 65
Width: 1024
GlyphClass: 2
Flags: W
LayerCount: 2
Fore
SplineSet
266 703 m 1,0,-1
 22 703 l 1,1,-1
 360 1372 l 1,2,-1
 665 1372 l 1,3,-1
 1003 703 l 1,4,-1
 759 703 l 1,5,-1
 512 1187 l 1,6,-1
 266 703 l 1,0,-1
EndSplineSet
Validated: 1
EndChar

StartChar: underscore
Encoding: 95 95 66
Width: 1024
GlyphClass: 2
Flags: W
LayerCount: 2
Fore
SplineSet
0 -107 m 1,0,-1
 1024 -107 l 1,1,-1
 1024 -315 l 1,2,-1
 0 -315 l 1,3,-1
 0 -107 l 1,0,-1
EndSplineSet
Validated: 1
EndChar

StartChar: grave
Encoding: 96 96 67
Width: 1024
GlyphClass: 2
Flags: W
LayerCount: 2
Fore
SplineSet
666 1208 m 1,0,-1
 590 1131 l 1,1,-1
 237 1353 l 1,2,-1
 345 1489 l 1,3,-1
 666 1208 l 1,0,-1
EndSplineSet
Validated: 1
EndChar

StartChar: a
Encoding: 97 97 68
Width: 750
GlyphClass: 2
Flags: W
LayerCount: 2
Fore
SplineSet
0 0 m 1,0,-1
 159 0 l 1,1,-1
 231 426 l 1,2,-1
 431 426 l 1,3,-1
 492 -1 l 1,4,-1
 650 0 l 1,5,-1
 436 1500 l 1,6,-1
 222 1500 l 1,7,-1
 0 0 l 1,0,-1
348 1213 m 1,8,-1
 419 533 l 1,9,-1
 240 533 l 1,10,-1
 312 1214 l 1,11,-1
 348 1213 l 1,8,-1
EndSplineSet
Validated: 9
EndChar

StartChar: b
Encoding: 98 98 69
Width: 522
GlyphClass: 2
Flags: W
LayerCount: 2
Fore
SplineSet
1 1501 m 1,0,1
 1 1312 1 1312 0 1219 c 2,2,-1
 0 0 l 1,3,4
 269 1 269 1 297 0 c 0,5,6
 381 6 381 6 404 69.5 c 128,-1,7
 427 133 427 133 427 263 c 2,8,-1
 428 676 l 2,9,10
 428 745 428 745 366 765 c 1,11,12
 427 784 427 784 427 863 c 2,13,-1
 427 1339 l 2,14,15
 427 1384 427 1384 403.5 1432 c 128,-1,16
 380 1480 380 1480 257 1500 c 1,17,18
 214 1500 214 1500 1 1501 c 1,0,1
277 202 m 0,19,20
 274 111 274 111 222.5 110 c 128,-1,21
 171 109 171 109 147 110 c 1,22,-1
 147 670 l 2,23,24
 150 670 150 670 212 670 c 128,-1,25
 274 670 274 670 277 614 c 0,26,27
 278 588 278 588 277 202 c 0,19,20
277 912 m 0,28,29
 274 821 274 821 222.5 820 c 128,-1,30
 171 819 171 819 147 820 c 1,31,-1
 147 1380 l 2,32,33
 150 1380 150 1380 212 1380 c 128,-1,34
 274 1380 274 1380 277 1324 c 0,35,36
 278 1298 278 1298 277 912 c 0,28,29
EndSplineSet
Validated: 41
EndChar

StartChar: c
Encoding: 99 99 70
Width: 528
GlyphClass: 2
Flags: W
LayerCount: 2
Fore
SplineSet
0 1335 m 0,0,1
 0 1315 0 1315 0 1222 c 2,2,-1
 0 169 l 1,3,4
 16 58 16 58 131 16.5 c 128,-1,5
 246 -25 246 -25 339 38.5 c 128,-1,6
 432 102 432 102 429 223 c 2,7,-1
 429 435 l 1,8,-1
 276 435 l 1,9,-1
 277 207 l 2,10,11
 275 142 275 142 213.5 142 c 128,-1,12
 152 142 152 142 147 205 c 1,13,-1
 147 1299 l 1,14,15
 155 1360 155 1360 214 1361 c 128,-1,16
 273 1362 273 1362 276 1312 c 0,17,18
 277 1285 277 1285 276 1078 c 1,19,-1
 429 1078 l 1,20,-1
 429 1343 l 2,21,22
 430 1387 430 1387 404.5 1430.5 c 128,-1,23
 379 1474 379 1474 257 1500 c 1,24,25
 16 1509 16 1509 0 1335 c 0,0,1
EndSplineSet
Validated: 41
EndChar

StartChar: d
Encoding: 100 100 71
Width: 516
GlyphClass: 2
Flags: W
LayerCount: 2
Fore
SplineSet
283 448 m 1,0,-1
 282 212 l 2,1,2
 283 147 283 147 228 148 c 128,-1,3
 173 149 173 149 148 148 c 1,4,-1
 148 1373 l 1,5,6
 152 1373 152 1373 212.5 1373 c 128,-1,7
 273 1373 273 1373 282 1312 c 0,8,9
 283 1286 283 1286 282 1069 c 2,10,-1
 283 448 l 1,0,-1
1 1501 m 1,11,12
 1 1313 1 1313 0 1220 c 2,13,-1
 0 0 l 1,14,15
 269 0 269 0 297 0 c 0,16,17
 381 0 381 0 406 52.5 c 128,-1,18
 431 105 431 105 429 225 c 2,19,-1
 429 435 l 1,20,-1
 430 1054 l 1,21,-1
 430 1339 l 2,22,23
 430 1384 430 1384 405 1442 c 128,-1,24
 380 1500 380 1500 257 1500 c 0,25,26
 214 1500 214 1500 1 1501 c 1,11,12
EndSplineSet
Validated: 41
EndChar

StartChar: e
Encoding: 101 101 72
Width: 493
GlyphClass: 2
Flags: W
LayerCount: 2
Fore
SplineSet
0 0 m 1,0,-1
 393 0 l 1,1,-1
 393 143 l 1,2,-1
 143 143 l 1,3,-1
 143 714 l 1,4,-1
 393 714 l 1,5,-1
 393 857 l 1,6,-1
 143 857 l 1,7,-1
 143 1357 l 1,8,-1
 394 1357 l 1,9,-1
 393 1500 l 1,10,-1
 0 1500 l 1,11,-1
 0 0 l 1,0,-1
EndSplineSet
Validated: 9
EndChar

StartChar: f
Encoding: 102 102 73
Width: 493
GlyphClass: 2
Flags: W
LayerCount: 2
Fore
SplineSet
0 0 m 1,0,-1
 142 0 l 1,1,-1
 143 714 l 1,2,-1
 393 714 l 1,3,-1
 393 857 l 1,4,-1
 143 857 l 1,5,-1
 143 1357 l 1,6,-1
 394 1357 l 1,7,-1
 393 1500 l 1,8,-1
 0 1500 l 1,9,-1
 0 0 l 1,0,-1
EndSplineSet
Validated: 9
EndChar

StartChar: g
Encoding: 103 103 74
Width: 528
GlyphClass: 2
Flags: W
LayerCount: 2
Fore
SplineSet
256 611 m 1024,0,-1
429 745 m 1,1,-1
 429 223 l 2,2,3
 429 100 429 100 349 38.5 c 0,4,5
 266 -25 266 -25 141 16.5 c 128,-1,6
 16 58 16 58 0 169 c 1,7,-1
 0 1222 l 2,8,9
 0 1315 0 1315 0 1335 c 0,10,11
 0 1510 0 1510 257 1500 c 1,12,13
 371 1489 371 1489 404 1430 c 0,14,15
 429 1385 429 1385 429 1343 c 2,16,-1
 429 1176 l 1,17,-1
 276 1176 l 1,18,19
 275 1285 275 1285 276 1312 c 0,20,21
 276 1361 276 1361 215 1362 c 0,22,23
 147 1363 147 1363 147 1299 c 1,24,-1
 147 205 l 1,25,26
 147 142 147 142 212 142 c 128,-1,27
 277 142 277 142 277 213 c 1,28,-1
 278 634 l 1,29,-1
 227 634 l 1,30,-1
 227 745 l 1,31,-1
 429 745 l 1,1,-1
EndSplineSet
Validated: 524321
EndChar

StartChar: h
Encoding: 104 104 75
Width: 581
GlyphClass: 2
Flags: W
LayerCount: 2
Fore
SplineSet
0 0 m 1,0,-1
 130 0 l 1,1,-1
 130 722 l 1,2,-1
 352 722 l 1,3,-1
 352 0 l 1,4,-1
 481 0 l 1,5,-1
 481 1500 l 1,6,-1
 352 1500 l 1,7,-1
 352 866 l 1,8,-1
 130 865 l 1,9,-1
 128 1500 l 1,10,-1
 0 1500 l 1,11,-1
 0 0 l 1,0,-1
EndSplineSet
Validated: 9
EndChar

StartChar: i
Encoding: 105 105 76
Width: 230
GlyphClass: 2
Flags: W
LayerCount: 2
Fore
SplineSet
0 0 m 1,0,-1
 130 0 l 1,1,-1
 130 1500 l 1,2,-1
 0 1500 l 1,3,-1
 0 0 l 1,0,-1
EndSplineSet
Validated: 9
EndChar

StartChar: j
Encoding: 106 106 77
Width: 528
GlyphClass: 2
Flags: W
LayerCount: 2
Fore
SplineSet
428 1501 m 1,0,-1
 428 169 l 1,1,2
 412 58 412 58 297 16.5 c 128,-1,3
 182 -25 182 -25 89 38.5 c 128,-1,4
 -4 102 -4 102 -1 223 c 2,5,-1
 -1 435 l 1,6,-1
 152 435 l 1,7,-1
 151 207 l 2,8,9
 153 142 153 142 214.5 142 c 128,-1,10
 276 142 276 142 281 205 c 1,11,-1
 281 1500 l 1,12,-1
 428 1501 l 1,0,-1
EndSplineSet
Validated: 33
EndChar

StartChar: k
Encoding: 107 107 78
Width: 644
GlyphClass: 2
Flags: W
LayerCount: 2
Fore
SplineSet
144 945 m 1,0,-1
 144 1500 l 1,1,-1
 0 1500 l 1,2,-1
 0 0 l 1,3,-1
 144 0 l 1,4,-1
 144 630 l 1,5,-1
 361 0 l 1,6,-1
 545 0 l 1,7,-1
 264 847 l 1,8,-1
 541 1501 l 1,9,-1
 385 1500 l 1,10,-1
 144 945 l 1,0,-1
EndSplineSet
Validated: 9
EndChar

StartChar: l
Encoding: 108 108 79
Width: 493
GlyphClass: 2
Flags: W
LayerCount: 2
Fore
SplineSet
0 1500 m 1,0,-1
 142 1500 l 1,1,-1
 143 143 l 1,2,-1
 394 143 l 1,3,-1
 393 0 l 1,4,-1
 0 0 l 1,5,-1
 0 1500 l 1,0,-1
EndSplineSet
Validated: 1
EndChar

StartChar: m
Encoding: 109 109 80
Width: 962
GlyphClass: 2
Flags: W
LayerCount: 2
Fore
SplineSet
0 0 m 1,0,-1
 141 0 l 1,1,-1
 141 1161 l 1,2,-1
 340 0 l 1,3,-1
 520 0 l 1,4,-1
 721 1161 l 1,5,-1
 721 0 l 1,6,-1
 862 0 l 1,7,-1
 862 1500 l 1,8,-1
 609 1500 l 1,9,-1
 431 278 l 1,10,-1
 253 1500 l 1,11,-1
 0 1500 l 1,12,-1
 0 0 l 1,0,-1
EndSplineSet
Validated: 9
EndChar

StartChar: n
Encoding: 110 110 81
Width: 661
GlyphClass: 2
Flags: W
LayerCount: 2
Fore
SplineSet
0 0 m 1,0,-1
 161 0 l 1,1,-1
 160 1113 l 1,2,-1
 346 0 l 1,3,-1
 561 0 l 1,4,-1
 561 1500 l 1,5,-1
 420 1500 l 1,6,-1
 420 408 l 1,7,-1
 222 1500 l 1,8,-1
 0 1500 l 1,9,-1
 0 0 l 1,0,-1
EndSplineSet
Validated: 9
EndChar

StartChar: o
Encoding: 111 111 82
Width: 529
GlyphClass: 2
Flags: W
LayerCount: 2
Fore
SplineSet
277 183 m 0,0,1
 275 128 275 128 212 128.5 c 128,-1,2
 149 129 149 129 148 181 c 2,3,-1
 148 1305 l 1,4,5
 154 1358 154 1358 212 1357 c 128,-1,6
 270 1356 270 1356 278 1304 c 0,7,8
 277 1291 277 1291 277 183 c 0,0,1
0 1271 m 2,9,-1
 0 219 l 2,10,11
 0 -1 0 -1 216 -0.5 c 128,-1,12
 432 0 432 0 430 223 c 2,13,-1
 430 1272 l 1,14,15
 426 1500 426 1500 208 1500 c 0,16,17
 1 1500 1 1500 0 1271 c 2,9,-1
EndSplineSet
Validated: 41
EndChar

StartChar: p
Encoding: 112 112 83
Width: 527
GlyphClass: 2
Flags: W
LayerCount: 2
Fore
SplineSet
1 1501 m 1,0,1
 1 1312 1 1312 0 1219 c 2,2,-1
 0 0 l 1,3,-1
 148 0 l 1,4,-1
 148 686 l 1,5,-1
 316 685 l 1,6,7
 427 724 427 724 427 843 c 2,8,-1
 427 1055 l 1,9,-1
 427 1339 l 2,10,11
 427 1384 427 1384 403.5 1432 c 128,-1,12
 380 1480 380 1480 257 1500 c 1,13,14
 214 1500 214 1500 1 1501 c 1,0,1
278 1043 m 1,15,-1
 277 912 l 2,16,17
 274 821 274 821 222.5 820 c 128,-1,18
 171 819 171 819 147 820 c 1,19,-1
 147 1380 l 2,20,21
 150 1380 150 1380 212 1380 c 128,-1,22
 274 1380 274 1380 277 1324 c 0,23,24
 278 1298 278 1298 277 1138 c 2,25,-1
 278 1043 l 1,15,-1
EndSplineSet
Validated: 41
EndChar

StartChar: q
Encoding: 113 113 84
Width: 529
GlyphClass: 2
Flags: W
LayerCount: 2
Fore
SplineSet
277 183 m 0,0,1
 275 128 275 128 212 128.5 c 128,-1,2
 149 129 149 129 148 181 c 2,3,-1
 148 1305 l 1,4,5
 154 1358 154 1358 212 1357 c 128,-1,6
 270 1356 270 1356 278 1304 c 0,7,8
 277 1291 277 1291 277 183 c 0,0,1
0 1271 m 2,9,-1
 0 219 l 2,10,11
 0 -1 0 -1 216 0 c 1,12,-1
 217 -9 l 1,13,-1
 430 -9 l 1,14,-1
 430 89 l 1,15,-1
 373 89 l 1,16,17
 420 105 420 105 430 223 c 1,18,-1
 430 1272 l 1,19,20
 426 1500 426 1500 208 1500 c 0,21,22
 1 1500 1 1500 0 1271 c 2,9,-1
EndSplineSet
Validated: 41
EndChar

StartChar: r
Encoding: 114 114 85
Width: 527
GlyphClass: 2
Flags: W
LayerCount: 2
Fore
SplineSet
1 1501 m 1,0,1
 1 1312 1 1312 0 1219 c 2,2,-1
 0 0 l 1,3,-1
 140 0 l 1,4,-1
 139 661 l 1,5,6
 291 678 291 678 290 571 c 2,7,-1
 289 0 l 1,8,-1
 427 0 l 1,9,-1
 428 676 l 2,10,11
 428 745 428 745 366 765 c 1,12,13
 427 784 427 784 428 863 c 2,14,-1
 428 1055 l 1,15,-1
 428 1339 l 2,16,17
 427 1384 427 1384 403.5 1432 c 128,-1,18
 380 1480 380 1480 257 1500 c 1,19,20
 214 1500 214 1500 1 1501 c 1,0,1
277 912 m 0,21,22
 274 821 274 821 222.5 820 c 128,-1,23
 171 819 171 819 147 820 c 1,24,-1
 147 1380 l 2,25,26
 150 1380 150 1380 212 1380 c 128,-1,27
 274 1380 274 1380 277 1324 c 0,28,29
 278 1298 278 1298 277 912 c 0,21,22
EndSplineSet
Validated: 41
EndChar

StartChar: s
Encoding: 115 115 86
Width: 600
GlyphClass: 2
Flags: W
LayerCount: 2
Fore
SplineSet
0 397 m 1,0,-1
 149 397 l 1,1,2
 156 298 156 298 169 258 c 128,-1,3
 182 218 182 218 203 205 c 128,-1,4
 224 192 224 192 244 187 c 128,-1,5
 264 182 264 182 292 187 c 128,-1,6
 320 192 320 192 333 234.5 c 128,-1,7
 346 277 346 277 351.5 314 c 128,-1,8
 357 351 357 351 348 419 c 1,9,10
 348 487 348 487 340 533 c 128,-1,11
 332 579 332 579 306 623 c 1,12,13
 305 656 305 656 210.5 719 c 128,-1,14
 116 782 116 782 81 825 c 1,15,16
 45 859 45 859 23 924.5 c 128,-1,17
 1 990 1 990 1 1100 c 256,18,19
 1 1210 1 1210 28 1305.5 c 128,-1,20
 55 1401 55 1401 106.5 1450.5 c 128,-1,21
 158 1500 158 1500 238 1500 c 1,22,23
 359 1510 359 1510 419.5 1453 c 128,-1,24
 480 1396 480 1396 491.5 1320 c 128,-1,25
 503 1244 503 1244 500 1103 c 1,26,-1
 355 1103 l 1,27,28
 357 1240 357 1240 347 1283 c 128,-1,29
 337 1326 337 1326 289 1338.5 c 128,-1,30
 241 1351 241 1351 205 1326 c 128,-1,31
 169 1301 169 1301 155.5 1252 c 128,-1,32
 142 1203 142 1203 142 1113 c 0,33,34
 142 1035 142 1035 158 994 c 1,35,36
 162 944 162 944 267 886 c 128,-1,37
 372 828 372 828 410 789 c 0,38,39
 473 720 473 720 486.5 635.5 c 128,-1,40
 500 551 500 551 500 434 c 0,41,42
 500 319 500 319 479.5 216.5 c 128,-1,43
 459 114 459 114 414 57 c 128,-1,44
 369 0 369 0 268 0 c 0,45,46
 150 0 150 0 100.5 57.5 c 128,-1,47
 51 115 51 115 27 175 c 128,-1,48
 3 235 3 235 0 397 c 1,0,-1
EndSplineSet
Validated: 33
EndChar

StartChar: t
Encoding: 116 116 87
Width: 551
GlyphClass: 2
Flags: W
LayerCount: 2
Fore
SplineSet
0 1355 m 1,0,-1
 152 1356 l 1,1,-1
 152 -1 l 1,2,-1
 297 0 l 1,3,-1
 297 1356 l 1,4,-1
 452 1356 l 1,5,-1
 451 1500 l 1,6,-1
 0 1500 l 1,7,-1
 0 1355 l 1,0,-1
EndSplineSet
Validated: 9
EndChar

StartChar: u
Encoding: 117 117 88
Width: 529
GlyphClass: 2
Flags: W
LayerCount: 2
Fore
SplineSet
0 219 m 2,0,1
 0 -1 0 -1 216 -0.5 c 128,-1,2
 432 0 432 0 430 223 c 2,3,-1
 430 1500 l 1,4,-1
 279 1500 l 1,5,-1
 280 205 l 2,6,7
 279 137 279 137 213.5 137 c 128,-1,8
 148 137 148 137 149 205 c 2,9,-1
 148 1500 l 1,10,-1
 1 1500 l 1,11,-1
 0 219 l 2,0,1
EndSplineSet
Validated: 41
EndChar

StartChar: v
Encoding: 118 118 89
Width: 804
GlyphClass: 2
Flags: W
LayerCount: 2
Fore
SplineSet
273 1 m 1,0,-1
 426 0 l 1,1,-1
 704 1500 l 1,2,-1
 574 1500 l 1,3,-1
 574 1500 l 1,4,-1
 361 376 l 1,5,-1
 334 376 l 1,6,-1
 139 1500 l 1,7,-1
 0 1500 l 1,8,-1
 273 1 l 1,0,-1
EndSplineSet
Validated: 5
EndChar

StartChar: w
Encoding: 119 119 90
Width: 661
GlyphClass: 2
Flags: W
LayerCount: 2
Fore
SplineSet
0 1500 m 1,0,-1
 109 1500 l 1,1,-1
 138 549 l 1,2,-1
 206 1500 l 1,3,-1
 354 1500 l 1,4,-1
 423 549 l 1,5,-1
 452 1500 l 1,6,-1
 561 1500 l 1,7,-1
 492 0 l 1,8,-1
 338 0 l 1,9,-1
 280 1102 l 1,10,-1
 223 0 l 1,11,-1
 69 0 l 1,12,-1
 0 1500 l 1,0,-1
EndSplineSet
Validated: 1
EndChar

StartChar: x
Encoding: 120 120 91
Width: 853
GlyphClass: 2
Flags: W
LayerCount: 2
Fore
SplineSet
282 787 m 1,0,-1
 0 0 l 1,1,-1
 169 0 l 1,2,-1
 375 544 l 1,3,-1
 574 0 l 1,4,-1
 753 0 l 1,5,-1
 479 789 l 1,6,-1
 753 1500 l 1,7,-1
 583 1500 l 1,8,-1
 375 953 l 1,9,-1
 150 1500 l 1,10,-1
 0 1500 l 1,11,-1
 282 787 l 1,0,-1
EndSplineSet
Validated: 9
EndChar

StartChar: y
Encoding: 121 121 92
Width: 853
GlyphClass: 2
Flags: W
LayerCount: 2
Fore
SplineSet
302 787 m 1,0,-1
 300 0 l 1,1,-1
 459 0 l 1,2,-1
 459 789 l 1,3,-1
 753 1500 l 1,4,-1
 583 1500 l 1,5,-1
 375 953 l 1,6,-1
 150 1500 l 1,7,-1
 0 1500 l 1,8,-1
 302 787 l 1,0,-1
EndSplineSet
Validated: 9
EndChar

StartChar: z
Encoding: 122 122 93
Width: 699
GlyphClass: 2
Flags: W
LayerCount: 2
Fore
SplineSet
600 0 m 1,0,-1
 600 190 l 1,1,-1
 205 191 l 1,2,-1
 600 1315 l 1,3,-1
 600 1500 l 1,4,-1
 0 1500 l 1,5,-1
 0 1323 l 1,6,-1
 387 1323 l 1,7,-1
 0 174 l 1,8,-1
 0 0 l 1,9,-1
 600 0 l 1,0,-1
EndSplineSet
Validated: 9
EndChar

StartChar: braceleft
Encoding: 123 123 94
Width: 523
GlyphClass: 2
Flags: W
LayerCount: 2
Fore
SplineSet
498 1365 m 1,0,-1
 498 1246 l 1,1,2
 419 1245 419 1245 397 1212.5 c 128,-1,3
 375 1180 375 1180 375 1046 c 2,4,-1
 375 830 l 2,5,6
 375 652 375 652 353 602 c 128,-1,7
 331 552 331 552 250 524 c 1,8,9
 330 495 330 495 352.5 445 c 128,-1,10
 375 395 375 395 375 217 c 2,11,-1
 375 -23 l 2,12,13
 375 -156 375 -156 396.5 -189.5 c 128,-1,14
 418 -223 418 -223 498 -223 c 1,15,-1
 498 -342 l 1,16,17
 444 -344 444 -344 438 -344 c 0,18,19
 302 -344 302 -344 242 -276.5 c 128,-1,20
 182 -209 182 -209 182 -23 c 2,21,-1
 182 221 l 2,22,23
 182 374 182 374 164 413 c 128,-1,24
 146 452 146 452 73 452 c 1,25,-1
 73 595 l 1,26,27
 145 595 145 595 163.5 633 c 128,-1,28
 182 671 182 671 182 826 c 2,29,-1
 182 1046 l 2,30,31
 182 1241 182 1241 246 1304 c 128,-1,32
 310 1367 310 1367 434 1367 c 0,33,34
 452 1367 452 1367 498 1365 c 1,0,-1
EndSplineSet
Validated: 1
EndChar

StartChar: bar
Encoding: 124 124 95
Width: 1024
GlyphClass: 2
Flags: W
LayerCount: 2
Fore
SplineSet
396 1365 m 1,0,-1
 628 1365 l 1,1,-1
 628 -341 l 1,2,-1
 396 -341 l 1,3,-1
 396 1365 l 1,0,-1
EndSplineSet
Validated: 1
EndChar

StartChar: braceright
Encoding: 125 125 96
Width: 523
GlyphClass: 2
Flags: W
LayerCount: 2
Fore
SplineSet
25 -342 m 1,0,-1
 25 -223 l 1,1,2
 104 -223 104 -223 126 -190 c 128,-1,3
 148 -157 148 -157 148 -23 c 2,4,-1
 148 217 l 2,5,6
 148 394 148 394 169.5 444 c 128,-1,7
 191 494 191 494 273 524 c 1,8,9
 193 552 193 552 170.5 602 c 128,-1,10
 148 652 148 652 148 830 c 2,11,-1
 148 1046 l 2,12,13
 148 1179 148 1179 126 1211.5 c 128,-1,14
 104 1244 104 1244 25 1246 c 1,15,-1
 25 1365 l 1,16,17
 79 1367 79 1367 84 1367 c 0,18,19
 224 1367 224 1367 282.5 1297 c 128,-1,20
 341 1227 341 1227 341 1046 c 2,21,-1
 341 826 l 2,22,23
 341 705 341 705 346 671 c 128,-1,24
 351 637 351 637 376 616 c 128,-1,25
 401 595 401 595 450 595 c 1,26,-1
 450 452 l 1,27,28
 401 452 401 452 376.5 431.5 c 128,-1,29
 352 411 352 411 346.5 377 c 128,-1,30
 341 343 341 343 341 221 c 2,31,-1
 341 -23 l 2,32,33
 341 -218 341 -218 277 -281 c 128,-1,34
 213 -344 213 -344 89 -344 c 0,35,36
 71 -344 71 -344 25 -342 c 1,0,-1
EndSplineSet
Validated: 1
EndChar

StartChar: asciitilde
Encoding: 126 126 97
Width: 1365
GlyphClass: 2
Flags: W
LayerCount: 2
Fore
SplineSet
304 487 m 1,0,-1
 187 564 l 1,1,2
 259 727 259 727 329 775.5 c 128,-1,3
 399 824 399 824 483 824 c 0,4,5
 556 824 556 824 703 763 c 0,6,7
 839 706 839 706 891 706 c 0,8,9
 990 706 990 706 1057 828 c 1,10,-1
 1178 758 l 1,11,12
 1066 506 1066 506 864 506 c 0,13,14
 802 506 802 506 625 578 c 0,15,16
 512 624 512 624 467 624 c 0,17,18
 372 624 372 624 304 487 c 1,0,-1
EndSplineSet
Validated: 1
EndChar
